<svg width="173" height="294" viewBox="0 0 173 294" fill="none" xmlns="http://www.w3.org/2000/svg">
<path d="M97.2919 122.834L97.2266 123.392H97.7885H169.013C170.124 123.392 171.236 124.241 171.785 125.752L171.785 125.753C172.335 127.259 172.172 129.046 171.389 130.329C171.388 130.331 171.387 130.332 171.386 130.334L67.1735 291.915L67.1667 291.926C66.542 292.952 65.6511 293.452 64.7943 293.452C64.3906 293.452 63.979 293.345 63.5763 293.105L63.5751 293.105C62.3006 292.352 61.4915 290.484 61.7433 288.499L61.7439 288.494L75.4217 171.538L75.487 170.98H74.9251H3.70054C2.58953 170.98 1.47789 170.131 0.932882 168.621L0.932218 168.619C0.382121 167.113 0.544989 165.326 1.32805 164.043C1.32904 164.042 1.33003 164.04 1.33102 164.038L105.544 2.45736L105.544 2.45742L105.549 2.44829C106.467 0.956636 107.935 0.555301 109.138 1.26734L109.139 1.26761C110.413 2.02011 111.222 3.88763 110.97 5.87309L110.97 5.8779L97.2919 122.834Z" fill="#393939" stroke="#5C5C5C"/>
</svg>
