<svg xmlns="http://www.w3.org/2000/svg" viewBox="0 0 300 300"><defs><style>.cls-1{fill:#2b2b2b;}.cls-2{fill:#0acf83;}.cls-3{fill:#a259ff;}.cls-4{fill:#f24e1e;}.cls-5{fill:#ff7262;}.cls-6{fill:#1abcfe;}</style></defs><g id="Layer_2" data-name="Layer 2"><g id="Layer_1-2" data-name="Layer 1"><rect class="cls-1" width="300" height="300" rx="33.92"/><path id="path0_fill" data-name="path0 fill" class="cls-2" d="M117,249.11a33,33,0,0,0,33-33V183H117a33,33,0,0,0,0,66.07Z"/><path id="path1_fill" data-name="path1 fill" class="cls-3" d="M83.93,150a33,33,0,0,1,33-33h33V183H117A33,33,0,0,1,83.93,150Z"/><path id="path1_fill-2" data-name="path1 fill" class="cls-4" d="M83.93,83.93a33,33,0,0,1,33-33h33V117H117A33,33,0,0,1,83.93,83.93Z"/><path id="path2_fill" data-name="path2 fill" class="cls-5" d="M150,50.89h33A33,33,0,0,1,183,117H150Z"/><path id="path3_fill" data-name="path3 fill" class="cls-6" d="M216.07,150a33,33,0,1,1-33-33A33,33,0,0,1,216.07,150Z"/></g></g></svg>