<svg width="358" height="263" viewBox="0 0 358 263" fill="none" xmlns="http://www.w3.org/2000/svg">
<line x1="45.3889" y1="0.686035" x2="45.3889" y2="262.137" stroke="url(#paint0_linear_592_223)" stroke-width="1.30128"/>
<line x1="63.345" y1="0.686035" x2="63.345" y2="262.137" stroke="url(#paint1_linear_592_223)" stroke-width="1.30128"/>
<line x1="81.302" y1="0.686035" x2="81.302" y2="262.137" stroke="url(#paint2_linear_592_223)" stroke-width="1.30128"/>
<line x1="99.2581" y1="0.686035" x2="99.2581" y2="262.137" stroke="url(#paint3_linear_592_223)" stroke-width="1.30128"/>
<line x1="117.215" y1="0.686035" x2="117.215" y2="262.137" stroke="url(#paint4_linear_592_223)" stroke-width="1.30128"/>
<line x1="135.172" y1="0.686035" x2="135.172" y2="262.137" stroke="url(#paint5_linear_592_223)" stroke-width="1.30128"/>
<line x1="153.128" y1="0.686035" x2="153.128" y2="262.137" stroke="url(#paint6_linear_592_223)" stroke-width="1.30128"/>
<line x1="171.084" y1="0.686035" x2="171.084" y2="262.137" stroke="url(#paint7_linear_592_223)" stroke-width="1.30128"/>
<line x1="189.041" y1="0.686035" x2="189.041" y2="262.137" stroke="url(#paint8_linear_592_223)" stroke-width="1.30128"/>
<line x1="206.997" y1="0.686035" x2="206.997" y2="262.137" stroke="url(#paint9_linear_592_223)" stroke-width="1.30128"/>
<line x1="224.953" y1="0.686035" x2="224.953" y2="262.137" stroke="url(#paint10_linear_592_223)" stroke-width="1.30128"/>
<line x1="242.91" y1="0.686035" x2="242.91" y2="262.137" stroke="url(#paint11_linear_592_223)" stroke-width="1.30128"/>
<line x1="260.866" y1="0.686035" x2="260.866" y2="262.137" stroke="url(#paint12_linear_592_223)" stroke-width="1.30128"/>
<line x1="278.823" y1="0.686035" x2="278.823" y2="262.137" stroke="url(#paint13_linear_592_223)" stroke-width="1.30128"/>
<line x1="296.78" y1="0.686035" x2="296.78" y2="262.137" stroke="url(#paint14_linear_592_223)" stroke-width="1.30128"/>
<line x1="314.737" y1="0.686035" x2="314.737" y2="262.137" stroke="url(#paint15_linear_592_223)" stroke-width="1.30128"/>
<line opacity="0.1" x1="357.862" y1="31.864" x2="0.965363" y2="31.864" stroke="url(#paint16_linear_592_223)" stroke-width="1.30128"/>
<line opacity="0.2" x1="357.862" y1="50.0819" x2="0.965363" y2="50.0819" stroke="url(#paint17_linear_592_223)" stroke-width="1.30128"/>
<line opacity="0.35" x1="357.862" y1="68.2998" x2="0.965363" y2="68.2998" stroke="url(#paint18_linear_592_223)" stroke-width="1.30128"/>
<line opacity="0.45" x1="357.862" y1="86.5176" x2="0.965363" y2="86.5176" stroke="url(#paint19_linear_592_223)" stroke-width="1.30128"/>
<line opacity="0.6" x1="357.862" y1="104.736" x2="0.965363" y2="104.736" stroke="url(#paint20_linear_592_223)" stroke-width="1.30128"/>
<line opacity="0.75" x1="357.862" y1="122.953" x2="0.965363" y2="122.953" stroke="url(#paint21_linear_592_223)" stroke-width="1.30128"/>
<line opacity="0.95" x1="357.862" y1="141.171" x2="0.965363" y2="141.171" stroke="url(#paint22_linear_592_223)" stroke-width="1.30128"/>
<line x1="357.862" y1="159.389" x2="0.965363" y2="159.389" stroke="url(#paint23_linear_592_223)" stroke-width="1.30128"/>
<line x1="357.862" y1="177.607" x2="0.965363" y2="177.607" stroke="url(#paint24_linear_592_223)" stroke-width="1.30128"/>
<line x1="357.862" y1="195.825" x2="0.965363" y2="195.825" stroke="url(#paint25_linear_592_223)" stroke-width="1.30128"/>
<line x1="357.862" y1="214.043" x2="0.965363" y2="214.043" stroke="url(#paint26_linear_592_223)" stroke-width="1.30128"/>
<line x1="357.862" y1="232.261" x2="0.965363" y2="232.261" stroke="url(#paint27_linear_592_223)" stroke-width="1.30128"/>
<rect x="118.007" y="141.986" width="124.272" height="35.1345" rx="5.85575" fill="white"/>
<path d="M159.32 165.328C160.199 165.328 160.959 165.186 161.6 164.901C162.245 164.616 162.741 164.215 163.086 163.696C163.437 163.178 163.612 162.563 163.612 161.851V161.844C163.612 161.01 163.353 160.349 162.835 159.861C162.321 159.368 161.485 159 160.326 158.756L159.144 158.504C158.458 158.362 157.963 158.163 157.658 157.909C157.358 157.655 157.208 157.335 157.208 156.949V156.941C157.208 156.626 157.297 156.356 157.475 156.133C157.658 155.909 157.907 155.736 158.222 155.614C158.537 155.487 158.895 155.424 159.297 155.424C159.719 155.424 160.087 155.487 160.402 155.614C160.718 155.741 160.969 155.914 161.157 156.133C161.35 156.346 161.47 156.598 161.516 156.888L161.531 156.979H163.407L163.399 156.88C163.358 156.29 163.168 155.762 162.827 155.294C162.487 154.826 162.019 154.458 161.424 154.188C160.829 153.914 160.125 153.777 159.312 153.777C158.519 153.777 157.815 153.916 157.2 154.196C156.59 154.471 156.11 154.854 155.759 155.347C155.413 155.84 155.241 156.415 155.241 157.071V157.078C155.241 157.897 155.495 158.57 156.003 159.099C156.516 159.622 157.337 160.004 158.466 160.242L159.648 160.486C160.359 160.639 160.87 160.842 161.18 161.096C161.49 161.345 161.645 161.668 161.645 162.065V162.072C161.645 162.387 161.549 162.667 161.356 162.911C161.162 163.15 160.895 163.338 160.555 163.475C160.214 163.613 159.823 163.681 159.381 163.681C158.918 163.681 158.506 163.618 158.146 163.491C157.785 163.358 157.495 163.178 157.276 162.949C157.063 162.72 156.941 162.451 156.91 162.141L156.903 162.065H154.997L155.004 162.171C155.05 162.802 155.253 163.353 155.614 163.826C155.975 164.299 156.468 164.667 157.093 164.932C157.724 165.196 158.466 165.328 159.32 165.328ZM168.561 165.054H170.528V155.706H173.913V154.051H165.175V155.706H168.561V165.054ZM173.944 165.054H176.003L178.892 156.095H179.479V154.051H177.848L173.944 165.054ZM175.911 162.21H181.98L181.469 160.692H176.422L175.911 162.21ZM181.912 165.054H183.97L180.059 154.051H179.022V156.095L181.912 165.054ZM185.861 165.054H187.828V160.913H189.91C189.925 160.913 189.943 160.913 189.963 160.913C189.984 160.913 189.999 160.913 190.009 160.913L192.174 165.054H194.416L192.014 160.608C192.665 160.375 193.171 159.978 193.532 159.419C193.898 158.855 194.081 158.209 194.081 157.482V157.467C194.081 156.766 193.931 156.161 193.631 155.652C193.331 155.144 192.899 154.75 192.335 154.471C191.77 154.191 191.094 154.051 190.306 154.051H185.861V165.054ZM187.828 159.404V155.637H190.062C190.688 155.637 191.178 155.807 191.534 156.148C191.895 156.483 192.075 156.938 192.075 157.513V157.528C192.075 158.118 191.902 158.578 191.557 158.908C191.211 159.239 190.726 159.404 190.101 159.404H187.828ZM199.212 165.054H201.179V155.706H204.565V154.051H195.827V155.706H199.212V165.054Z" fill="#2F2F2F"/>
<rect x="118.007" y="141.986" width="124.272" height="35.1345" rx="5.85575" stroke="white" stroke-width="1.30128" stroke-dasharray="5.21 5.21"/>
<defs>
<linearGradient id="paint0_linear_592_223" x1="44.7383" y1="0.686035" x2="44.7383" y2="262.137" gradientUnits="userSpaceOnUse">
<stop stop-color="#5C5C5C" stop-opacity="0"/>
<stop offset="0.661458" stop-color="#5C5C5C"/>
<stop offset="0.859375" stop-color="#5C5C5C"/>
<stop offset="1" stop-color="#5C5C5C" stop-opacity="0"/>
</linearGradient>
<linearGradient id="paint1_linear_592_223" x1="62.6943" y1="0.686035" x2="62.6943" y2="262.137" gradientUnits="userSpaceOnUse">
<stop stop-color="#5C5C5C" stop-opacity="0"/>
<stop offset="0.661458" stop-color="#5C5C5C"/>
<stop offset="0.859375" stop-color="#5C5C5C"/>
<stop offset="1" stop-color="#5C5C5C" stop-opacity="0"/>
</linearGradient>
<linearGradient id="paint2_linear_592_223" x1="80.6514" y1="0.686035" x2="80.6514" y2="262.137" gradientUnits="userSpaceOnUse">
<stop stop-color="#5C5C5C" stop-opacity="0"/>
<stop offset="0.661458" stop-color="#5C5C5C"/>
<stop offset="0.859375" stop-color="#5C5C5C"/>
<stop offset="1" stop-color="#5C5C5C" stop-opacity="0"/>
</linearGradient>
<linearGradient id="paint3_linear_592_223" x1="98.6074" y1="0.686035" x2="98.6074" y2="262.137" gradientUnits="userSpaceOnUse">
<stop stop-color="#5C5C5C" stop-opacity="0"/>
<stop offset="0.661458" stop-color="#5C5C5C"/>
<stop offset="0.859375" stop-color="#5C5C5C"/>
<stop offset="1" stop-color="#5C5C5C" stop-opacity="0"/>
</linearGradient>
<linearGradient id="paint4_linear_592_223" x1="116.564" y1="0.686035" x2="116.564" y2="262.137" gradientUnits="userSpaceOnUse">
<stop stop-color="#5C5C5C" stop-opacity="0"/>
<stop offset="0.661458" stop-color="#5C5C5C"/>
<stop offset="0.859375" stop-color="#5C5C5C"/>
<stop offset="1" stop-color="#5C5C5C" stop-opacity="0"/>
</linearGradient>
<linearGradient id="paint5_linear_592_223" x1="134.521" y1="0.686035" x2="134.521" y2="262.137" gradientUnits="userSpaceOnUse">
<stop stop-color="#5C5C5C" stop-opacity="0"/>
<stop offset="0.661458" stop-color="#5C5C5C"/>
<stop offset="0.859375" stop-color="#5C5C5C"/>
<stop offset="1" stop-color="#5C5C5C" stop-opacity="0"/>
</linearGradient>
<linearGradient id="paint6_linear_592_223" x1="152.478" y1="0.686035" x2="152.478" y2="262.137" gradientUnits="userSpaceOnUse">
<stop stop-color="#5C5C5C" stop-opacity="0"/>
<stop offset="0.661458" stop-color="#5C5C5C"/>
<stop offset="0.859375" stop-color="#5C5C5C"/>
<stop offset="1" stop-color="#5C5C5C" stop-opacity="0"/>
</linearGradient>
<linearGradient id="paint7_linear_592_223" x1="170.434" y1="0.686035" x2="170.434" y2="262.137" gradientUnits="userSpaceOnUse">
<stop stop-color="#5C5C5C" stop-opacity="0"/>
<stop offset="0.661458" stop-color="#5C5C5C"/>
<stop offset="0.859375" stop-color="#5C5C5C"/>
<stop offset="1" stop-color="#5C5C5C" stop-opacity="0"/>
</linearGradient>
<linearGradient id="paint8_linear_592_223" x1="188.391" y1="0.686035" x2="188.391" y2="262.137" gradientUnits="userSpaceOnUse">
<stop stop-color="#5C5C5C" stop-opacity="0"/>
<stop offset="0.661458" stop-color="#5C5C5C"/>
<stop offset="0.859375" stop-color="#5C5C5C"/>
<stop offset="1" stop-color="#5C5C5C" stop-opacity="0"/>
</linearGradient>
<linearGradient id="paint9_linear_592_223" x1="206.347" y1="0.686035" x2="206.347" y2="262.137" gradientUnits="userSpaceOnUse">
<stop stop-color="#5C5C5C" stop-opacity="0"/>
<stop offset="0.661458" stop-color="#5C5C5C"/>
<stop offset="0.859375" stop-color="#5C5C5C"/>
<stop offset="1" stop-color="#5C5C5C" stop-opacity="0"/>
</linearGradient>
<linearGradient id="paint10_linear_592_223" x1="224.303" y1="0.686035" x2="224.303" y2="262.137" gradientUnits="userSpaceOnUse">
<stop stop-color="#5C5C5C" stop-opacity="0"/>
<stop offset="0.661458" stop-color="#5C5C5C"/>
<stop offset="0.859375" stop-color="#5C5C5C"/>
<stop offset="1" stop-color="#5C5C5C" stop-opacity="0"/>
</linearGradient>
<linearGradient id="paint11_linear_592_223" x1="242.26" y1="0.686035" x2="242.26" y2="262.137" gradientUnits="userSpaceOnUse">
<stop stop-color="#5C5C5C" stop-opacity="0"/>
<stop offset="0.661458" stop-color="#5C5C5C"/>
<stop offset="0.859375" stop-color="#5C5C5C"/>
<stop offset="1" stop-color="#5C5C5C" stop-opacity="0"/>
</linearGradient>
<linearGradient id="paint12_linear_592_223" x1="260.216" y1="0.686035" x2="260.216" y2="262.137" gradientUnits="userSpaceOnUse">
<stop stop-color="#5C5C5C" stop-opacity="0"/>
<stop offset="0.661458" stop-color="#5C5C5C"/>
<stop offset="0.859375" stop-color="#5C5C5C"/>
<stop offset="1" stop-color="#5C5C5C" stop-opacity="0"/>
</linearGradient>
<linearGradient id="paint13_linear_592_223" x1="278.173" y1="0.686035" x2="278.173" y2="262.137" gradientUnits="userSpaceOnUse">
<stop stop-color="#5C5C5C" stop-opacity="0"/>
<stop offset="0.661458" stop-color="#5C5C5C"/>
<stop offset="0.859375" stop-color="#5C5C5C"/>
<stop offset="1" stop-color="#5C5C5C" stop-opacity="0"/>
</linearGradient>
<linearGradient id="paint14_linear_592_223" x1="296.129" y1="0.686035" x2="296.129" y2="262.137" gradientUnits="userSpaceOnUse">
<stop stop-color="#5C5C5C" stop-opacity="0"/>
<stop offset="0.661458" stop-color="#5C5C5C"/>
<stop offset="0.859375" stop-color="#5C5C5C"/>
<stop offset="1" stop-color="#5C5C5C" stop-opacity="0"/>
</linearGradient>
<linearGradient id="paint15_linear_592_223" x1="314.086" y1="0.686035" x2="314.086" y2="262.137" gradientUnits="userSpaceOnUse">
<stop stop-color="#5C5C5C" stop-opacity="0"/>
<stop offset="0.661458" stop-color="#5C5C5C"/>
<stop offset="0.859375" stop-color="#5C5C5C"/>
<stop offset="1" stop-color="#5C5C5C" stop-opacity="0"/>
</linearGradient>
<linearGradient id="paint16_linear_592_223" x1="357.862" y1="31.2134" x2="0.965235" y2="31.2133" gradientUnits="userSpaceOnUse">
<stop stop-color="#5C5C5C" stop-opacity="0"/>
<stop offset="0.145833" stop-color="#5C5C5C"/>
<stop offset="0.859375" stop-color="#5C5C5C"/>
<stop offset="1" stop-color="#5C5C5C" stop-opacity="0"/>
</linearGradient>
<linearGradient id="paint17_linear_592_223" x1="357.862" y1="49.4313" x2="0.965235" y2="49.4312" gradientUnits="userSpaceOnUse">
<stop stop-color="#5C5C5C" stop-opacity="0"/>
<stop offset="0.145833" stop-color="#5C5C5C"/>
<stop offset="0.859375" stop-color="#5C5C5C"/>
<stop offset="1" stop-color="#5C5C5C" stop-opacity="0"/>
</linearGradient>
<linearGradient id="paint18_linear_592_223" x1="357.862" y1="67.6492" x2="0.965235" y2="67.6491" gradientUnits="userSpaceOnUse">
<stop stop-color="#5C5C5C" stop-opacity="0"/>
<stop offset="0.145833" stop-color="#5C5C5C"/>
<stop offset="0.859375" stop-color="#5C5C5C"/>
<stop offset="1" stop-color="#5C5C5C" stop-opacity="0"/>
</linearGradient>
<linearGradient id="paint19_linear_592_223" x1="357.862" y1="85.8669" x2="0.965235" y2="85.8669" gradientUnits="userSpaceOnUse">
<stop stop-color="#5C5C5C" stop-opacity="0"/>
<stop offset="0.145833" stop-color="#5C5C5C"/>
<stop offset="0.859375" stop-color="#5C5C5C"/>
<stop offset="1" stop-color="#5C5C5C" stop-opacity="0"/>
</linearGradient>
<linearGradient id="paint20_linear_592_223" x1="357.862" y1="104.085" x2="0.965235" y2="104.085" gradientUnits="userSpaceOnUse">
<stop stop-color="#5C5C5C" stop-opacity="0"/>
<stop offset="0.145833" stop-color="#5C5C5C"/>
<stop offset="0.859375" stop-color="#5C5C5C"/>
<stop offset="1" stop-color="#5C5C5C" stop-opacity="0"/>
</linearGradient>
<linearGradient id="paint21_linear_592_223" x1="357.862" y1="122.303" x2="0.965235" y2="122.303" gradientUnits="userSpaceOnUse">
<stop stop-color="#5C5C5C" stop-opacity="0"/>
<stop offset="0.145833" stop-color="#5C5C5C"/>
<stop offset="0.859375" stop-color="#5C5C5C"/>
<stop offset="1" stop-color="#5C5C5C" stop-opacity="0"/>
</linearGradient>
<linearGradient id="paint22_linear_592_223" x1="357.862" y1="140.521" x2="0.965235" y2="140.521" gradientUnits="userSpaceOnUse">
<stop stop-color="#5C5C5C" stop-opacity="0"/>
<stop offset="0.145833" stop-color="#5C5C5C"/>
<stop offset="0.859375" stop-color="#5C5C5C"/>
<stop offset="1" stop-color="#5C5C5C" stop-opacity="0"/>
</linearGradient>
<linearGradient id="paint23_linear_592_223" x1="357.862" y1="158.739" x2="0.965235" y2="158.738" gradientUnits="userSpaceOnUse">
<stop stop-color="#5C5C5C" stop-opacity="0"/>
<stop offset="0.145833" stop-color="#5C5C5C"/>
<stop offset="0.859375" stop-color="#5C5C5C"/>
<stop offset="1" stop-color="#5C5C5C" stop-opacity="0"/>
</linearGradient>
<linearGradient id="paint24_linear_592_223" x1="357.862" y1="176.956" x2="0.965235" y2="176.956" gradientUnits="userSpaceOnUse">
<stop stop-color="#5C5C5C" stop-opacity="0"/>
<stop offset="0.145833" stop-color="#5C5C5C"/>
<stop offset="0.859375" stop-color="#5C5C5C"/>
<stop offset="1" stop-color="#5C5C5C" stop-opacity="0"/>
</linearGradient>
<linearGradient id="paint25_linear_592_223" x1="357.862" y1="195.174" x2="0.965235" y2="195.174" gradientUnits="userSpaceOnUse">
<stop stop-color="#5C5C5C" stop-opacity="0"/>
<stop offset="0.145833" stop-color="#5C5C5C"/>
<stop offset="0.859375" stop-color="#5C5C5C"/>
<stop offset="1" stop-color="#5C5C5C" stop-opacity="0"/>
</linearGradient>
<linearGradient id="paint26_linear_592_223" x1="357.862" y1="213.392" x2="0.965235" y2="213.392" gradientUnits="userSpaceOnUse">
<stop stop-color="#5C5C5C" stop-opacity="0"/>
<stop offset="0.145833" stop-color="#5C5C5C"/>
<stop offset="0.859375" stop-color="#5C5C5C"/>
<stop offset="1" stop-color="#5C5C5C" stop-opacity="0"/>
</linearGradient>
<linearGradient id="paint27_linear_592_223" x1="357.862" y1="231.61" x2="0.965235" y2="231.61" gradientUnits="userSpaceOnUse">
<stop stop-color="#5C5C5C" stop-opacity="0"/>
<stop offset="0.145833" stop-color="#5C5C5C"/>
<stop offset="0.859375" stop-color="#5C5C5C"/>
<stop offset="1" stop-color="#5C5C5C" stop-opacity="0"/>
</linearGradient>
</defs>
</svg>
