<svg width="358" height="263" viewBox="0 0 358 263" fill="none" xmlns="http://www.w3.org/2000/svg">
<line x1="45.3889" y1="0.686035" x2="45.3889" y2="262.137" stroke="url(#paint0_linear_592_190)" stroke-width="1.30128"/>
<line x1="63.345" y1="0.686035" x2="63.345" y2="262.137" stroke="url(#paint1_linear_592_190)" stroke-width="1.30128"/>
<line x1="81.302" y1="0.686035" x2="81.302" y2="262.137" stroke="url(#paint2_linear_592_190)" stroke-width="1.30128"/>
<line x1="99.2581" y1="0.686035" x2="99.2581" y2="262.137" stroke="url(#paint3_linear_592_190)" stroke-width="1.30128"/>
<line x1="117.215" y1="0.686035" x2="117.215" y2="262.137" stroke="url(#paint4_linear_592_190)" stroke-width="1.30128"/>
<line x1="135.172" y1="0.686035" x2="135.172" y2="262.137" stroke="url(#paint5_linear_592_190)" stroke-width="1.30128"/>
<line x1="153.128" y1="0.686035" x2="153.128" y2="262.137" stroke="url(#paint6_linear_592_190)" stroke-width="1.30128"/>
<line x1="171.084" y1="0.686035" x2="171.084" y2="262.137" stroke="url(#paint7_linear_592_190)" stroke-width="1.30128"/>
<line x1="189.041" y1="0.686035" x2="189.041" y2="262.137" stroke="url(#paint8_linear_592_190)" stroke-width="1.30128"/>
<line x1="206.997" y1="0.686035" x2="206.997" y2="262.137" stroke="url(#paint9_linear_592_190)" stroke-width="1.30128"/>
<line x1="224.953" y1="0.686035" x2="224.953" y2="262.137" stroke="url(#paint10_linear_592_190)" stroke-width="1.30128"/>
<line x1="242.91" y1="0.686035" x2="242.91" y2="262.137" stroke="url(#paint11_linear_592_190)" stroke-width="1.30128"/>
<line x1="260.866" y1="0.686035" x2="260.866" y2="262.137" stroke="url(#paint12_linear_592_190)" stroke-width="1.30128"/>
<line x1="278.823" y1="0.686035" x2="278.823" y2="262.137" stroke="url(#paint13_linear_592_190)" stroke-width="1.30128"/>
<line x1="296.78" y1="0.686035" x2="296.78" y2="262.137" stroke="url(#paint14_linear_592_190)" stroke-width="1.30128"/>
<line x1="314.737" y1="0.686035" x2="314.737" y2="262.137" stroke="url(#paint15_linear_592_190)" stroke-width="1.30128"/>
<line opacity="0.1" x1="357.862" y1="31.864" x2="0.965363" y2="31.864" stroke="url(#paint16_linear_592_190)" stroke-width="1.30128"/>
<line opacity="0.2" x1="357.862" y1="50.0819" x2="0.965363" y2="50.0819" stroke="url(#paint17_linear_592_190)" stroke-width="1.30128"/>
<line opacity="0.35" x1="357.862" y1="68.2998" x2="0.965363" y2="68.2998" stroke="url(#paint18_linear_592_190)" stroke-width="1.30128"/>
<line opacity="0.45" x1="357.862" y1="86.5176" x2="0.965363" y2="86.5176" stroke="url(#paint19_linear_592_190)" stroke-width="1.30128"/>
<line opacity="0.6" x1="357.862" y1="104.736" x2="0.965363" y2="104.736" stroke="url(#paint20_linear_592_190)" stroke-width="1.30128"/>
<line opacity="0.75" x1="357.862" y1="122.953" x2="0.965363" y2="122.953" stroke="url(#paint21_linear_592_190)" stroke-width="1.30128"/>
<line opacity="0.95" x1="357.862" y1="141.171" x2="0.965363" y2="141.171" stroke="url(#paint22_linear_592_190)" stroke-width="1.30128"/>
<line x1="357.862" y1="159.389" x2="0.965363" y2="159.389" stroke="url(#paint23_linear_592_190)" stroke-width="1.30128"/>
<line x1="357.862" y1="177.607" x2="0.965363" y2="177.607" stroke="url(#paint24_linear_592_190)" stroke-width="1.30128"/>
<line x1="357.862" y1="195.825" x2="0.965363" y2="195.825" stroke="url(#paint25_linear_592_190)" stroke-width="1.30128"/>
<line x1="357.862" y1="214.043" x2="0.965363" y2="214.043" stroke="url(#paint26_linear_592_190)" stroke-width="1.30128"/>
<line x1="357.862" y1="232.261" x2="0.965363" y2="232.261" stroke="url(#paint27_linear_592_190)" stroke-width="1.30128"/>
<rect x="118.007" y="141.986" width="124.272" height="35.1345" rx="5.85575" fill="#050505" fill-opacity="0.7"/>
<path d="M159.743 165.32C160.597 165.32 161.34 165.181 161.97 164.901C162.6 164.622 163.086 164.228 163.426 163.719C163.772 163.206 163.945 162.598 163.945 161.897V161.889C163.945 161.076 163.691 160.425 163.182 159.937C162.679 159.449 161.85 159.083 160.697 158.839L159.492 158.573C158.785 158.42 158.274 158.209 157.959 157.94C157.649 157.665 157.494 157.325 157.494 156.918V156.91C157.494 156.565 157.591 156.27 157.784 156.026C157.982 155.782 158.249 155.596 158.585 155.469C158.92 155.337 159.301 155.271 159.728 155.271C160.17 155.266 160.557 155.332 160.887 155.469C161.223 155.602 161.49 155.785 161.688 156.018C161.891 156.252 162.016 156.519 162.061 156.819L162.077 156.918H163.746L163.739 156.819C163.698 156.245 163.508 155.729 163.167 155.271C162.831 154.814 162.371 154.453 161.787 154.188C161.207 153.919 160.529 153.784 159.751 153.784C158.973 153.784 158.285 153.919 157.685 154.188C157.085 154.458 156.615 154.834 156.274 155.317C155.939 155.8 155.768 156.359 155.763 156.994V157.002C155.763 157.815 156.018 158.484 156.526 159.007C157.034 159.526 157.845 159.904 158.958 160.143L160.163 160.395C160.89 160.552 161.413 160.771 161.734 161.051C162.054 161.33 162.214 161.681 162.214 162.103V162.11C162.214 162.446 162.11 162.743 161.901 163.003C161.698 163.262 161.416 163.465 161.055 163.613C160.694 163.76 160.282 163.834 159.82 163.834C159.327 163.834 158.887 163.765 158.501 163.628C158.119 163.491 157.814 163.3 157.586 163.056C157.362 162.812 157.232 162.525 157.197 162.194L157.189 162.11H155.504L155.512 162.21C155.563 162.825 155.766 163.366 156.122 163.834C156.478 164.301 156.963 164.667 157.578 164.932C158.193 165.191 158.915 165.32 159.743 165.32ZM168.985 165.054H170.693V155.53H174.154V154.051H165.523V155.53H168.985V165.054ZM174.146 165.054H175.946L178.981 155.98H179.499V154.051H178.119L174.146 165.054ZM176.06 162.08H182.03L181.55 160.708H176.541L176.06 162.08ZM182.137 165.054H183.937L179.972 154.051H179.11V155.98L182.137 165.054ZM185.85 165.054H187.558V160.822H189.876C189.891 160.822 189.907 160.822 189.922 160.822C189.937 160.822 189.952 160.822 189.968 160.822L192.209 165.054H194.184L191.721 160.563C192.392 160.334 192.916 159.94 193.292 159.381C193.668 158.817 193.856 158.163 193.856 157.421V157.406C193.856 156.725 193.706 156.135 193.406 155.637C193.112 155.134 192.69 154.745 192.141 154.471C191.592 154.191 190.941 154.051 190.189 154.051H185.85V165.054ZM187.558 159.434V155.485H189.968C190.634 155.485 191.152 155.66 191.523 156.011C191.899 156.361 192.087 156.842 192.087 157.452V157.467C192.087 158.092 191.907 158.578 191.546 158.923C191.185 159.264 190.677 159.434 190.021 159.434H187.558ZM199.087 165.054H200.795V155.53H204.256V154.051H195.625V155.53H199.087V165.054Z" fill="white"/>
<rect x="118.007" y="141.986" width="124.272" height="35.1345" rx="5.85575" stroke="white" stroke-width="1.30128" stroke-dasharray="5.21 5.21"/>
<defs>
<linearGradient id="paint0_linear_592_190" x1="44.7383" y1="0.686035" x2="44.7383" y2="262.137" gradientUnits="userSpaceOnUse">
<stop stop-color="#5C5C5C" stop-opacity="0"/>
<stop offset="0.661458" stop-color="#5C5C5C"/>
<stop offset="0.859375" stop-color="#5C5C5C"/>
<stop offset="1" stop-color="#5C5C5C" stop-opacity="0"/>
</linearGradient>
<linearGradient id="paint1_linear_592_190" x1="62.6943" y1="0.686035" x2="62.6943" y2="262.137" gradientUnits="userSpaceOnUse">
<stop stop-color="#5C5C5C" stop-opacity="0"/>
<stop offset="0.661458" stop-color="#5C5C5C"/>
<stop offset="0.859375" stop-color="#5C5C5C"/>
<stop offset="1" stop-color="#5C5C5C" stop-opacity="0"/>
</linearGradient>
<linearGradient id="paint2_linear_592_190" x1="80.6514" y1="0.686035" x2="80.6514" y2="262.137" gradientUnits="userSpaceOnUse">
<stop stop-color="#5C5C5C" stop-opacity="0"/>
<stop offset="0.661458" stop-color="#5C5C5C"/>
<stop offset="0.859375" stop-color="#5C5C5C"/>
<stop offset="1" stop-color="#5C5C5C" stop-opacity="0"/>
</linearGradient>
<linearGradient id="paint3_linear_592_190" x1="98.6074" y1="0.686035" x2="98.6074" y2="262.137" gradientUnits="userSpaceOnUse">
<stop stop-color="#5C5C5C" stop-opacity="0"/>
<stop offset="0.661458" stop-color="#5C5C5C"/>
<stop offset="0.859375" stop-color="#5C5C5C"/>
<stop offset="1" stop-color="#5C5C5C" stop-opacity="0"/>
</linearGradient>
<linearGradient id="paint4_linear_592_190" x1="116.564" y1="0.686035" x2="116.564" y2="262.137" gradientUnits="userSpaceOnUse">
<stop stop-color="#5C5C5C" stop-opacity="0"/>
<stop offset="0.661458" stop-color="#5C5C5C"/>
<stop offset="0.859375" stop-color="#5C5C5C"/>
<stop offset="1" stop-color="#5C5C5C" stop-opacity="0"/>
</linearGradient>
<linearGradient id="paint5_linear_592_190" x1="134.521" y1="0.686035" x2="134.521" y2="262.137" gradientUnits="userSpaceOnUse">
<stop stop-color="#5C5C5C" stop-opacity="0"/>
<stop offset="0.661458" stop-color="#5C5C5C"/>
<stop offset="0.859375" stop-color="#5C5C5C"/>
<stop offset="1" stop-color="#5C5C5C" stop-opacity="0"/>
</linearGradient>
<linearGradient id="paint6_linear_592_190" x1="152.478" y1="0.686035" x2="152.478" y2="262.137" gradientUnits="userSpaceOnUse">
<stop stop-color="#5C5C5C" stop-opacity="0"/>
<stop offset="0.661458" stop-color="#5C5C5C"/>
<stop offset="0.859375" stop-color="#5C5C5C"/>
<stop offset="1" stop-color="#5C5C5C" stop-opacity="0"/>
</linearGradient>
<linearGradient id="paint7_linear_592_190" x1="170.434" y1="0.686035" x2="170.434" y2="262.137" gradientUnits="userSpaceOnUse">
<stop stop-color="#5C5C5C" stop-opacity="0"/>
<stop offset="0.661458" stop-color="#5C5C5C"/>
<stop offset="0.859375" stop-color="#5C5C5C"/>
<stop offset="1" stop-color="#5C5C5C" stop-opacity="0"/>
</linearGradient>
<linearGradient id="paint8_linear_592_190" x1="188.391" y1="0.686035" x2="188.391" y2="262.137" gradientUnits="userSpaceOnUse">
<stop stop-color="#5C5C5C" stop-opacity="0"/>
<stop offset="0.661458" stop-color="#5C5C5C"/>
<stop offset="0.859375" stop-color="#5C5C5C"/>
<stop offset="1" stop-color="#5C5C5C" stop-opacity="0"/>
</linearGradient>
<linearGradient id="paint9_linear_592_190" x1="206.347" y1="0.686035" x2="206.347" y2="262.137" gradientUnits="userSpaceOnUse">
<stop stop-color="#5C5C5C" stop-opacity="0"/>
<stop offset="0.661458" stop-color="#5C5C5C"/>
<stop offset="0.859375" stop-color="#5C5C5C"/>
<stop offset="1" stop-color="#5C5C5C" stop-opacity="0"/>
</linearGradient>
<linearGradient id="paint10_linear_592_190" x1="224.303" y1="0.686035" x2="224.303" y2="262.137" gradientUnits="userSpaceOnUse">
<stop stop-color="#5C5C5C" stop-opacity="0"/>
<stop offset="0.661458" stop-color="#5C5C5C"/>
<stop offset="0.859375" stop-color="#5C5C5C"/>
<stop offset="1" stop-color="#5C5C5C" stop-opacity="0"/>
</linearGradient>
<linearGradient id="paint11_linear_592_190" x1="242.26" y1="0.686035" x2="242.26" y2="262.137" gradientUnits="userSpaceOnUse">
<stop stop-color="#5C5C5C" stop-opacity="0"/>
<stop offset="0.661458" stop-color="#5C5C5C"/>
<stop offset="0.859375" stop-color="#5C5C5C"/>
<stop offset="1" stop-color="#5C5C5C" stop-opacity="0"/>
</linearGradient>
<linearGradient id="paint12_linear_592_190" x1="260.216" y1="0.686035" x2="260.216" y2="262.137" gradientUnits="userSpaceOnUse">
<stop stop-color="#5C5C5C" stop-opacity="0"/>
<stop offset="0.661458" stop-color="#5C5C5C"/>
<stop offset="0.859375" stop-color="#5C5C5C"/>
<stop offset="1" stop-color="#5C5C5C" stop-opacity="0"/>
</linearGradient>
<linearGradient id="paint13_linear_592_190" x1="278.173" y1="0.686035" x2="278.173" y2="262.137" gradientUnits="userSpaceOnUse">
<stop stop-color="#5C5C5C" stop-opacity="0"/>
<stop offset="0.661458" stop-color="#5C5C5C"/>
<stop offset="0.859375" stop-color="#5C5C5C"/>
<stop offset="1" stop-color="#5C5C5C" stop-opacity="0"/>
</linearGradient>
<linearGradient id="paint14_linear_592_190" x1="296.129" y1="0.686035" x2="296.129" y2="262.137" gradientUnits="userSpaceOnUse">
<stop stop-color="#5C5C5C" stop-opacity="0"/>
<stop offset="0.661458" stop-color="#5C5C5C"/>
<stop offset="0.859375" stop-color="#5C5C5C"/>
<stop offset="1" stop-color="#5C5C5C" stop-opacity="0"/>
</linearGradient>
<linearGradient id="paint15_linear_592_190" x1="314.086" y1="0.686035" x2="314.086" y2="262.137" gradientUnits="userSpaceOnUse">
<stop stop-color="#5C5C5C" stop-opacity="0"/>
<stop offset="0.661458" stop-color="#5C5C5C"/>
<stop offset="0.859375" stop-color="#5C5C5C"/>
<stop offset="1" stop-color="#5C5C5C" stop-opacity="0"/>
</linearGradient>
<linearGradient id="paint16_linear_592_190" x1="357.862" y1="31.2134" x2="0.965235" y2="31.2133" gradientUnits="userSpaceOnUse">
<stop stop-color="#5C5C5C" stop-opacity="0"/>
<stop offset="0.145833" stop-color="#5C5C5C"/>
<stop offset="0.859375" stop-color="#5C5C5C"/>
<stop offset="1" stop-color="#5C5C5C" stop-opacity="0"/>
</linearGradient>
<linearGradient id="paint17_linear_592_190" x1="357.862" y1="49.4313" x2="0.965235" y2="49.4312" gradientUnits="userSpaceOnUse">
<stop stop-color="#5C5C5C" stop-opacity="0"/>
<stop offset="0.145833" stop-color="#5C5C5C"/>
<stop offset="0.859375" stop-color="#5C5C5C"/>
<stop offset="1" stop-color="#5C5C5C" stop-opacity="0"/>
</linearGradient>
<linearGradient id="paint18_linear_592_190" x1="357.862" y1="67.6492" x2="0.965235" y2="67.6491" gradientUnits="userSpaceOnUse">
<stop stop-color="#5C5C5C" stop-opacity="0"/>
<stop offset="0.145833" stop-color="#5C5C5C"/>
<stop offset="0.859375" stop-color="#5C5C5C"/>
<stop offset="1" stop-color="#5C5C5C" stop-opacity="0"/>
</linearGradient>
<linearGradient id="paint19_linear_592_190" x1="357.862" y1="85.8669" x2="0.965235" y2="85.8669" gradientUnits="userSpaceOnUse">
<stop stop-color="#5C5C5C" stop-opacity="0"/>
<stop offset="0.145833" stop-color="#5C5C5C"/>
<stop offset="0.859375" stop-color="#5C5C5C"/>
<stop offset="1" stop-color="#5C5C5C" stop-opacity="0"/>
</linearGradient>
<linearGradient id="paint20_linear_592_190" x1="357.862" y1="104.085" x2="0.965235" y2="104.085" gradientUnits="userSpaceOnUse">
<stop stop-color="#5C5C5C" stop-opacity="0"/>
<stop offset="0.145833" stop-color="#5C5C5C"/>
<stop offset="0.859375" stop-color="#5C5C5C"/>
<stop offset="1" stop-color="#5C5C5C" stop-opacity="0"/>
</linearGradient>
<linearGradient id="paint21_linear_592_190" x1="357.862" y1="122.303" x2="0.965235" y2="122.303" gradientUnits="userSpaceOnUse">
<stop stop-color="#5C5C5C" stop-opacity="0"/>
<stop offset="0.145833" stop-color="#5C5C5C"/>
<stop offset="0.859375" stop-color="#5C5C5C"/>
<stop offset="1" stop-color="#5C5C5C" stop-opacity="0"/>
</linearGradient>
<linearGradient id="paint22_linear_592_190" x1="357.862" y1="140.521" x2="0.965235" y2="140.521" gradientUnits="userSpaceOnUse">
<stop stop-color="#5C5C5C" stop-opacity="0"/>
<stop offset="0.145833" stop-color="#5C5C5C"/>
<stop offset="0.859375" stop-color="#5C5C5C"/>
<stop offset="1" stop-color="#5C5C5C" stop-opacity="0"/>
</linearGradient>
<linearGradient id="paint23_linear_592_190" x1="357.862" y1="158.739" x2="0.965235" y2="158.738" gradientUnits="userSpaceOnUse">
<stop stop-color="#5C5C5C" stop-opacity="0"/>
<stop offset="0.145833" stop-color="#5C5C5C"/>
<stop offset="0.859375" stop-color="#5C5C5C"/>
<stop offset="1" stop-color="#5C5C5C" stop-opacity="0"/>
</linearGradient>
<linearGradient id="paint24_linear_592_190" x1="357.862" y1="176.956" x2="0.965235" y2="176.956" gradientUnits="userSpaceOnUse">
<stop stop-color="#5C5C5C" stop-opacity="0"/>
<stop offset="0.145833" stop-color="#5C5C5C"/>
<stop offset="0.859375" stop-color="#5C5C5C"/>
<stop offset="1" stop-color="#5C5C5C" stop-opacity="0"/>
</linearGradient>
<linearGradient id="paint25_linear_592_190" x1="357.862" y1="195.174" x2="0.965235" y2="195.174" gradientUnits="userSpaceOnUse">
<stop stop-color="#5C5C5C" stop-opacity="0"/>
<stop offset="0.145833" stop-color="#5C5C5C"/>
<stop offset="0.859375" stop-color="#5C5C5C"/>
<stop offset="1" stop-color="#5C5C5C" stop-opacity="0"/>
</linearGradient>
<linearGradient id="paint26_linear_592_190" x1="357.862" y1="213.392" x2="0.965235" y2="213.392" gradientUnits="userSpaceOnUse">
<stop stop-color="#5C5C5C" stop-opacity="0"/>
<stop offset="0.145833" stop-color="#5C5C5C"/>
<stop offset="0.859375" stop-color="#5C5C5C"/>
<stop offset="1" stop-color="#5C5C5C" stop-opacity="0"/>
</linearGradient>
<linearGradient id="paint27_linear_592_190" x1="357.862" y1="231.61" x2="0.965235" y2="231.61" gradientUnits="userSpaceOnUse">
<stop stop-color="#5C5C5C" stop-opacity="0"/>
<stop offset="0.145833" stop-color="#5C5C5C"/>
<stop offset="0.859375" stop-color="#5C5C5C"/>
<stop offset="1" stop-color="#5C5C5C" stop-opacity="0"/>
</linearGradient>
</defs>
</svg>
