<svg width="35" height="33" viewBox="0 0 35 33" fill="none" xmlns="http://www.w3.org/2000/svg">
<g clip-path="url(#clip0_592_493)">
<path d="M5.86529 4.0422C5.79476 4.60322 5.58709 5.17152 5.399 5.60735C5.30715 5.82586 5.21425 6.00847 5.15203 6.14167C5.08814 6.27295 5.04421 6.34954 5.04421 6.34954C5.04421 6.34954 4.85419 6.20963 4.66346 5.9258C4.47113 5.63997 4.28311 5.20822 4.31634 4.61857C4.34597 4.0282 4.6169 3.40793 4.89046 2.94485C4.96002 2.83028 5.02823 2.7237 5.09141 2.6304C5.15467 2.53573 5.21761 2.4565 5.26817 2.3899C5.37208 2.25662 5.43789 2.18066 5.43789 2.18066C5.43789 2.18066 5.58773 2.36455 5.71082 2.69108C5.77375 2.85426 5.82695 3.05151 5.8593 3.27801C5.89356 3.5066 5.89787 3.75972 5.86529 4.0422Z" fill="#E4E4E4"/>
<path d="M3.52897 8.17186C3.6245 8.78749 3.56324 9.4511 3.49167 9.96943C3.47506 10.1 3.45605 10.2206 3.43568 10.3286C3.41835 10.4365 3.40206 10.5325 3.38648 10.6104C3.35557 10.7697 3.33121 10.8629 3.33121 10.8629C3.33121 10.8629 3.08792 10.7709 2.80142 10.5237C2.65933 10.4011 2.50422 10.2379 2.36876 10.0248C2.23729 9.81424 2.11517 9.55096 2.04991 9.23386C1.91078 8.5956 2.01397 7.85996 2.1658 7.29702C2.23865 7.01391 2.32754 6.77469 2.39376 6.60607C2.45901 6.43617 2.50829 6.33887 2.50829 6.33887C2.50829 6.33887 2.56221 6.37557 2.64439 6.4508C2.72658 6.5254 2.83808 6.63997 2.95525 6.7926C3.07107 6.94515 3.19183 7.13639 3.29367 7.36626C3.39559 7.5954 3.48376 7.86524 3.52905 8.17178L3.52897 8.17186Z" fill="#E4E4E4"/>
<path d="M2.33649 12.7724C2.6154 13.4014 2.75022 14.1203 2.8547 14.6859C2.88033 14.8278 2.89591 14.9611 2.91492 15.079C2.93553 15.1976 2.95046 15.3029 2.9618 15.3909C2.98481 15.5661 2.99215 15.6714 2.99215 15.6714C2.99215 15.6714 2.92091 15.6687 2.80214 15.6467C2.68289 15.6254 2.5162 15.5847 2.32491 15.5055C2.13354 15.4256 1.91788 15.3083 1.70055 15.129C1.48889 14.9478 1.28426 14.7066 1.10359 14.3822C0.754476 13.7332 0.640978 12.8911 0.644972 12.2342C0.642336 12.0696 0.652001 11.917 0.661266 11.7791C0.671968 11.6418 0.682272 11.5185 0.694971 11.4173C0.722607 11.2168 0.746249 11.0974 0.746249 11.0974C0.746249 11.0974 1.01605 11.1961 1.34225 11.4592C1.50399 11.5905 1.68801 11.763 1.86006 11.9802C2.02986 12.1961 2.20023 12.4592 2.33665 12.7724H2.33649Z" fill="#E4E4E4"/>
<path d="M2.57951 17.5715C3.09037 18.1205 3.48341 18.8061 3.79683 19.3471C3.83309 19.4164 3.86911 19.4823 3.90338 19.5457C3.93828 19.6089 3.97159 19.6689 4.00314 19.7268C4.06512 19.8401 4.11695 19.9427 4.15953 20.0287C4.24507 20.2006 4.29634 20.3031 4.29634 20.3031C4.29634 20.3031 4.22214 20.3258 4.09203 20.3471C3.96128 20.3691 3.77319 20.3891 3.54723 20.3784C3.10466 20.3525 2.48494 20.2085 1.89525 19.6715C1.30684 19.1352 0.875849 18.3083 0.647577 17.6107C0.584638 17.4375 0.545102 17.2703 0.504447 17.1204C0.466189 16.9691 0.43424 16.8359 0.411636 16.7239C0.37234 16.4987 0.356445 16.3608 0.356445 16.3608C0.356445 16.3608 0.43432 16.3648 0.56507 16.3888C0.696538 16.4148 0.881281 16.4621 1.09462 16.544C1.30396 16.628 1.55755 16.7466 1.80907 16.9138C1.93558 16.9978 2.06306 17.0937 2.18981 17.203C2.322 17.3109 2.45267 17.4321 2.57951 17.5714V17.5715Z" fill="#E4E4E4"/>
<path d="M4.34482 22.0395C4.43372 22.0881 4.51726 22.1421 4.60512 22.1948C4.69266 22.2488 4.7782 22.304 4.86167 22.3627C5.02908 22.4786 5.18754 22.6012 5.34721 22.7225C5.42548 22.7838 5.50168 22.8458 5.57556 22.9077C5.61214 22.9384 5.6484 22.9711 5.68411 23.0024C5.72204 23.0317 5.75831 23.063 5.79497 23.0923C5.93834 23.213 6.0718 23.3328 6.19464 23.4475C6.45095 23.666 6.65031 23.8739 6.80534 24.0132C6.9551 24.1544 7.03937 24.2451 7.03937 24.2451C7.03937 24.2451 6.97171 24.2951 6.84727 24.3637C6.7218 24.4316 6.53913 24.5162 6.30447 24.5842C6.07052 24.6515 5.78003 24.7041 5.45583 24.6895C5.13004 24.6768 4.75464 24.6095 4.36223 24.4316C3.56887 24.0818 2.84436 23.3709 2.37511 22.73C2.25363 22.5714 2.15546 22.4142 2.06361 22.2736C1.97408 22.1316 1.89381 22.0063 1.83726 21.8971C1.71985 21.6785 1.65723 21.5433 1.65723 21.5433C1.65723 21.5433 1.73806 21.5207 1.88151 21.5014C2.02527 21.484 2.23094 21.4694 2.47751 21.484C2.60163 21.4907 2.73373 21.5053 2.87782 21.5274C3.02223 21.55 3.17502 21.5813 3.33341 21.6246C3.49116 21.6672 3.65593 21.7225 3.82166 21.7932C3.99267 21.8604 4.1687 21.9418 4.34474 22.0397L4.34482 22.0395Z" fill="#E4E4E4"/>
<path d="M7.42234 25.7473C7.85397 25.8266 8.27729 25.9578 8.68431 26.0951C8.88263 26.1683 9.08335 26.237 9.27073 26.3083C9.36458 26.3463 9.45547 26.3829 9.54461 26.4175C9.63486 26.4502 9.72272 26.4842 9.80619 26.5175C10.1377 26.6581 10.4296 26.7673 10.6305 26.8606C10.7304 26.9079 10.8146 26.9359 10.8698 26.9619C10.9257 26.9858 10.956 26.9978 10.956 26.9978C10.956 26.9978 10.9091 27.0752 10.8093 27.1924C10.7101 27.3097 10.5591 27.4676 10.348 27.6281C10.1391 27.782 9.8708 27.9373 9.53103 28.0506C9.35931 28.1099 9.17528 28.1492 8.97297 28.1738C8.77161 28.1964 8.54701 28.2084 8.31235 28.1871C8.07777 28.1651 7.83512 28.1225 7.59383 28.0612C7.35725 27.994 7.11995 27.9107 6.88729 27.816C6.65933 27.7148 6.43905 27.6015 6.22731 27.4855C6.019 27.3663 5.82691 27.237 5.6456 27.1124C5.60032 27.0818 5.55679 27.0504 5.5135 27.0211C5.47156 26.9884 5.43059 26.9565 5.39065 26.9252C5.3111 26.8631 5.23562 26.8025 5.16502 26.7445C5.02325 26.6266 4.89809 26.5214 4.80224 26.4254C4.60688 26.2381 4.49609 26.1196 4.49609 26.1196C4.49609 26.1196 4.57229 26.0696 4.71406 26.0036C4.85488 25.9383 5.0619 25.8591 5.32077 25.7931C5.45016 25.7591 5.59161 25.7305 5.74608 25.7078C5.90183 25.6832 6.06884 25.6658 6.2456 25.6578C6.42331 25.6498 6.60837 25.6539 6.80438 25.6686C7.00246 25.6805 7.20941 25.7052 7.42242 25.7471L7.42234 25.7473Z" fill="#E4E4E4"/>
<path d="M11.6055 28.2265C11.8395 28.1805 12.0747 28.1505 12.308 28.1318C12.5436 28.1032 12.7777 28.0872 13.0056 28.0792C13.2362 28.0599 13.4599 28.0532 13.6741 28.0506C13.8908 28.0373 14.0968 28.0306 14.2892 28.0306C14.6745 28.0119 15.005 28.0173 15.2423 28.0033C15.4782 27.9979 15.6189 28.002 15.6189 28.002C15.6189 28.002 15.6063 28.0979 15.5617 28.2545C15.5171 28.411 15.4396 28.6282 15.3028 28.8741C15.2349 28.9967 15.1503 29.1266 15.0485 29.2586C14.9976 29.3245 14.9407 29.3911 14.8801 29.4571C14.8189 29.5204 14.7526 29.585 14.6814 29.647C14.5369 29.7729 14.3698 29.8942 14.1761 30.0088C13.9828 30.1221 13.7645 30.2114 13.5162 30.294C13.267 30.3798 13.0054 30.4259 12.7332 30.4612C12.4592 30.5006 12.183 30.5032 11.9051 30.4952C11.6262 30.4932 11.3551 30.4586 11.0894 30.4179C10.8232 30.3826 10.5733 30.3206 10.3374 30.2586C10.2199 30.2293 10.1054 30.1979 9.99694 30.1653C9.89047 30.1293 9.78855 30.094 9.69271 30.0587C9.5007 29.9887 9.32897 29.9267 9.19247 29.8649C8.91827 29.7389 8.75781 29.6556 8.75781 29.6556C8.75781 29.6556 8.817 29.5783 8.93856 29.4637C9.05901 29.3477 9.24175 29.1939 9.48161 29.0374C9.72026 28.8834 10.0244 28.7135 10.3782 28.5716C10.7297 28.4356 11.144 28.3017 11.6053 28.2265H11.6055Z" fill="#E4E4E4"/>
<path d="M6.76286 4.72251C6.25735 4.9084 5.8167 5.31752 5.51183 5.67794C5.36343 5.85983 5.24099 6.02438 5.16471 6.14894C5.08652 6.27287 5.04395 6.34954 5.04395 6.34954C5.04395 6.34818 5.26591 6.43349 5.60273 6.45612C5.93922 6.47947 6.3921 6.44812 6.86142 6.24025C7.32803 6.02837 7.74272 5.69793 8.0452 5.42137C8.12139 5.35214 8.18992 5.28745 8.25023 5.22685C8.31085 5.16753 8.3654 5.1162 8.40861 5.0703C8.49551 4.981 8.54343 4.92439 8.54343 4.92439C8.54343 4.92439 8.35134 4.78847 8.03385 4.68981C7.87547 4.6412 7.68178 4.60058 7.46677 4.59794C7.25511 4.59659 7.01238 4.62657 6.76286 4.72251Z" fill="#E4E4E4"/>
<path d="M4.68551 8.62901C4.20597 8.9788 3.85086 9.54046 3.63393 10.0115C3.58001 10.1301 3.53409 10.242 3.49415 10.3433C3.45581 10.4459 3.4269 10.5379 3.40262 10.6145C3.35406 10.7684 3.33105 10.863 3.33105 10.863C3.33105 10.863 3.59199 10.8857 3.95868 10.8131C4.14271 10.7764 4.35109 10.717 4.56866 10.6211C4.79063 10.5265 5.01227 10.3946 5.23463 10.2181C5.67161 9.85891 6.01402 9.3812 6.25858 8.99079C6.37879 8.79555 6.47791 8.62365 6.5438 8.49972C6.60706 8.37444 6.64564 8.29992 6.64564 8.29992C6.64564 8.29992 6.58374 8.27858 6.47559 8.25659C6.36705 8.23396 6.21298 8.2099 6.02967 8.20862C5.84629 8.20526 5.63031 8.22461 5.40004 8.28521C5.16874 8.34717 4.92808 8.45647 4.68551 8.62901Z" fill="#E4E4E4"/>
<path d="M3.6904 12.9197C3.28673 13.4214 3.07906 14.119 3.01612 14.6833C3.00015 14.824 2.98449 14.9572 2.98058 15.0765C2.97794 15.195 2.97794 15.3017 2.97994 15.3889C2.9833 15.5662 2.99192 15.6715 2.99192 15.6715C2.99192 15.6715 3.06141 15.6554 3.17523 15.6121C3.29008 15.5702 3.44847 15.5016 3.62618 15.4003C3.80429 15.3003 4.0019 15.1664 4.19335 14.9978C4.38935 14.8292 4.58767 14.6254 4.75341 14.3795C5.09789 13.8898 5.30819 13.3175 5.45532 12.8551C5.48894 12.7398 5.52257 12.6319 5.54949 12.5346C5.57648 12.4367 5.59613 12.3501 5.61434 12.2774C5.65196 12.1328 5.66825 12.0436 5.66825 12.0436C5.66825 12.0436 5.38367 12.0196 4.99071 12.1109C4.79199 12.1568 4.57338 12.2341 4.34702 12.3621C4.11771 12.4893 3.89535 12.6685 3.6904 12.9197Z" fill="#E4E4E4"/>
<path d="M4.02299 17.2425C3.78466 17.8955 3.81996 18.6863 3.96141 19.2853C3.97778 19.3613 3.99232 19.4339 4.01069 19.5025C4.0317 19.5717 4.05135 19.6364 4.06924 19.6984C4.1079 19.8223 4.14543 19.9302 4.17706 20.0209C4.20837 20.1128 4.24192 20.1815 4.26293 20.2287C4.28425 20.2773 4.29655 20.3033 4.29655 20.3033C4.29655 20.3033 4.36181 20.2613 4.46228 20.1761C4.56276 20.0915 4.69823 19.9642 4.84263 19.7983C5.13983 19.4599 5.45668 18.9708 5.634 18.3432C5.81235 17.7162 5.81866 17.0652 5.81235 16.5595C5.80644 16.4336 5.80972 16.315 5.80237 16.2111C5.79774 16.1058 5.78807 16.0139 5.78136 15.9373C5.77473 15.7834 5.76243 15.6914 5.76243 15.6914C5.76243 15.6914 5.68727 15.7094 5.56443 15.7534C5.44159 15.7981 5.27122 15.87 5.08249 15.9807C4.89016 16.0925 4.69415 16.2425 4.50342 16.449C4.40893 16.551 4.31676 16.6675 4.23289 16.7995C4.15398 16.9321 4.08274 17.0774 4.02291 17.2426L4.02299 17.2425Z" fill="#E4E4E4"/>
<path d="M5.71435 21.2154C5.71171 21.3101 5.7094 21.4053 5.7177 21.4986C5.72569 21.5932 5.73703 21.6878 5.75325 21.7825C5.78288 21.971 5.82617 22.1602 5.88879 22.3395C5.91834 22.4301 5.95101 22.5194 5.98392 22.6067C6.00229 22.65 6.0189 22.6946 6.03655 22.738C6.0562 22.7792 6.07545 22.8199 6.0951 22.8619C6.17393 23.0252 6.25748 23.1818 6.34038 23.3263C6.51842 23.6042 6.68279 23.8447 6.81993 23.9986C6.9534 24.1559 7.03894 24.2452 7.03894 24.2452C7.03894 24.2452 7.09077 24.1792 7.1637 24.0566C7.23758 23.9346 7.33207 23.7554 7.4216 23.5342C7.5121 23.313 7.59293 23.0525 7.65555 22.754C7.71649 22.4569 7.74412 22.1357 7.73246 21.7852C7.70219 21.0896 7.49652 20.4286 7.32344 19.9143C7.27687 19.789 7.23894 19.6678 7.19732 19.5638C7.15739 19.4585 7.11514 19.3693 7.0875 19.2906C7.02728 19.1368 6.98431 19.0481 6.98431 19.0481C6.98431 19.0481 6.91274 19.0913 6.80156 19.1773C6.69038 19.264 6.53998 19.3932 6.38351 19.5704C6.30604 19.6577 6.22441 19.759 6.14957 19.8709C6.07601 19.9815 6.00612 20.1061 5.94318 20.242C5.88064 20.3786 5.82609 20.5298 5.78352 20.693C5.7459 20.8537 5.72154 21.0275 5.71427 21.2154L5.71435 21.2154Z" fill="#E4E4E4"/>
<path d="M8.53631 24.4409C8.65012 24.8213 8.84884 25.1924 9.09644 25.5136C9.21625 25.6808 9.35403 25.8267 9.49077 25.966C9.5593 26.036 9.62759 26.1033 9.6978 26.1672C9.76832 26.2279 9.83925 26.2858 9.9081 26.3411C10.1817 26.5703 10.4499 26.7256 10.6399 26.8388C10.7344 26.8981 10.8166 26.932 10.8705 26.9594C10.9252 26.9848 10.9554 26.998 10.9554 26.998C10.9554 26.998 10.981 26.9121 11.006 26.7622C11.0323 26.6123 11.0578 26.3978 11.0626 26.1439C11.0702 25.8847 11.0586 25.5869 11.0093 25.2723C10.9836 25.1184 10.9541 24.9525 10.9111 24.7846C10.8698 24.616 10.8133 24.4542 10.7483 24.2816C10.4821 23.608 10.0757 23.0223 9.74197 22.5732C9.72064 22.5459 9.69899 22.5193 9.67807 22.4919C9.65842 22.4647 9.63813 22.4393 9.61952 22.4126C9.58023 22.3613 9.54261 22.3127 9.50603 22.2667C9.43342 22.1761 9.36393 22.1008 9.31194 22.0315C9.20411 21.8983 9.13255 21.825 9.13255 21.825C9.13255 21.825 9.07328 21.8929 8.9871 22.0155C8.90132 22.1394 8.78878 22.3206 8.68495 22.5512C8.63367 22.6658 8.58375 22.7944 8.54214 22.9329C8.50284 23.0695 8.47057 23.2181 8.45092 23.3774C8.43231 23.5367 8.42265 23.7092 8.43567 23.8857C8.44965 24.0616 8.48151 24.2475 8.53615 24.4408L8.53631 24.4409Z" fill="#E4E4E4"/>
<path d="M7.71358 1.81688C7.13052 2.32658 6.7977 2.96484 6.62637 3.44791C6.58412 3.5712 6.5481 3.68177 6.52182 3.78307C6.49626 3.88437 6.47757 3.97304 6.46328 4.04627C6.43636 4.19155 6.42773 4.27678 6.42773 4.27678C6.42773 4.27678 6.50928 4.24616 6.64403 4.18347C6.71128 4.15149 6.79155 4.11343 6.88268 4.06618C6.97421 4.02157 7.07741 3.96888 7.18595 3.90964C7.62485 3.67242 8.175 3.3387 8.68386 2.89488C9.19073 2.44779 9.58441 1.95808 9.88793 1.56839C9.96348 1.47237 10.0307 1.37914 10.091 1.29719C10.1521 1.21724 10.2048 1.14728 10.2477 1.08668C10.3342 0.966028 10.3809 0.890792 10.3809 0.890792C10.3809 0.890792 10.295 0.884076 10.1429 0.885436C10.0667 0.886715 9.97355 0.889433 9.86636 0.896069C9.76117 0.908062 9.64208 0.924692 9.51061 0.948678C9.37851 0.970745 9.23945 1.00664 9.09257 1.05262C9.01837 1.07596 8.94281 1.09987 8.86525 1.12657C8.79041 1.15791 8.7135 1.19053 8.6353 1.22515C8.55711 1.26049 8.47827 1.29839 8.39872 1.33837C8.32181 1.38306 8.24465 1.42903 8.16638 1.47764C8.08954 1.52769 8.00999 1.57758 7.93515 1.63563C7.86095 1.69224 7.78667 1.75292 7.71382 1.8168L7.71358 1.81688Z" fill="#E4E4E4"/>
<path d="M12.216 26.495C12.3434 26.6583 12.4912 26.8148 12.6536 26.9607C12.818 27.0954 12.9954 27.2226 13.1794 27.3372C13.3661 27.4425 13.5581 27.5384 13.7495 27.6218C13.9425 27.695 14.1332 27.7596 14.3146 27.815C14.6796 27.9056 15.0075 27.9663 15.2421 27.9796C15.478 27.9995 15.6187 28.0022 15.6187 28.0022C15.6187 28.0022 15.6055 27.9069 15.5642 27.7471C15.5229 27.5884 15.4537 27.3666 15.3498 27.1147C15.2972 26.9874 15.2366 26.8542 15.1665 26.7162C15.1315 26.649 15.0942 26.5797 15.0547 26.5097C15.0147 26.437 14.9738 26.3638 14.9292 26.2912C14.8417 26.1453 14.7438 25.9993 14.636 25.8595C14.5282 25.7188 14.412 25.5676 14.2839 25.4331C13.7718 24.8821 13.1906 24.4803 12.7261 24.1725C12.6676 24.1345 12.6103 24.1005 12.5564 24.0672C12.5032 24.0305 12.4512 23.9972 12.4026 23.9672C12.3048 23.904 12.2152 23.858 12.1424 23.812C11.997 23.7215 11.9057 23.6768 11.9057 23.6768C11.9057 23.6768 11.8695 23.7648 11.8248 23.92C11.7806 24.0739 11.7287 24.2937 11.7023 24.5622C11.6754 24.8321 11.6814 25.1359 11.7519 25.4704C11.8208 25.8095 11.9665 26.1494 12.2159 26.4951L12.216 26.495Z" fill="#E4E4E4"/>
<path d="M16.5503 31.7365C17.0115 31.1248 17.2126 30.3047 17.2877 29.6471C17.321 29.3194 17.3344 29.0308 17.3257 28.8269C17.3203 28.6217 17.3087 28.5005 17.3087 28.5005C17.3087 28.5005 16.9697 28.5784 16.5383 28.8176C16.1083 29.0561 15.5806 29.4505 15.1785 30.0575C14.7814 30.6678 14.5512 31.372 14.4114 31.9257C14.3745 32.0629 14.3461 32.1929 14.3232 32.3089C14.2989 32.4248 14.276 32.5261 14.2607 32.6127C14.2288 32.7826 14.2188 32.8852 14.2188 32.8852C14.2188 32.8852 14.5639 32.8945 15.0325 32.7632C15.2651 32.6973 15.5333 32.5946 15.7968 32.4314C16.0552 32.2669 16.3254 32.0429 16.5504 31.7365H16.5503Z" fill="#E4E4E4"/>
<path d="M18.068 31.7365C17.6073 31.1248 17.406 30.3047 17.3298 29.6471C17.2968 29.3194 17.2839 29.0308 17.2928 28.8269C17.2981 28.6217 17.3088 28.5005 17.3088 28.5005C17.3088 28.5005 17.6479 28.5784 18.0799 28.8176C18.5102 29.0561 19.038 29.4505 19.4397 30.0575C19.8361 30.6678 20.0674 31.372 20.2068 31.9257C20.2431 32.0629 20.2721 32.1929 20.295 32.3089C20.3186 32.4248 20.3429 32.5261 20.3579 32.6127C20.3889 32.7826 20.3995 32.8852 20.3995 32.8852C20.3995 32.8852 20.0537 32.8945 19.5857 32.7632C19.3535 32.6973 19.085 32.5946 18.8213 32.4314C18.5634 32.2669 18.2929 32.0429 18.0679 31.7365H18.068Z" fill="#E4E4E4"/>
<path d="M27.8609 4.90182C28.3604 5.08107 28.7953 5.48075 29.0953 5.83327C29.2423 6.01116 29.3622 6.17442 29.437 6.29571C29.5145 6.41764 29.5555 6.49287 29.5555 6.49287C29.5555 6.49287 29.3345 6.57682 28.9987 6.60217C28.6639 6.62943 28.2126 6.60081 27.7484 6.39965C27.2858 6.19577 26.8782 5.87324 26.5816 5.60484C26.5067 5.53888 26.4392 5.47556 26.3807 5.41623C26.3214 5.35827 26.2681 5.3083 26.2256 5.26496C26.1414 5.17702 26.0947 5.12177 26.0947 5.12177C26.0947 5.12177 26.2855 4.98577 26.6016 4.88455C26.7593 4.83458 26.951 4.79125 27.164 4.78725C27.3743 4.78325 27.6143 4.80979 27.8609 4.90182Z" fill="#E4E4E4"/>
<path d="M29.9449 8.72084C30.4207 9.06392 30.7742 9.61567 30.9885 10.0813C31.0417 10.1972 31.0873 10.3078 31.1272 10.4078C31.1648 10.509 31.1931 10.5996 31.2174 10.675C31.2647 10.8275 31.2877 10.9195 31.2877 10.9195C31.2877 10.9195 31.0274 10.9434 30.6607 10.8735C30.4773 10.8382 30.2696 10.7789 30.0526 10.6856C29.831 10.5943 29.6096 10.4644 29.388 10.2905C28.954 9.9394 28.6142 9.46832 28.3723 9.08655C28.2541 8.89402 28.1557 8.72476 28.0911 8.60211C28.0285 8.47955 27.9912 8.40495 27.9912 8.40495C27.9912 8.40495 28.0525 8.38496 28.1606 8.36162C28.2692 8.33899 28.4219 8.31492 28.6052 8.31157C28.7886 8.30757 29.0022 8.32556 29.2335 8.38488C29.4635 8.44421 29.7035 8.5507 29.9448 8.72068L29.9449 8.72084Z" fill="#E4E4E4"/>
<path d="M30.974 12.941C31.3764 13.4368 31.5834 14.1237 31.6463 14.678C31.6629 14.8173 31.6779 14.9479 31.6825 15.0651C31.6845 15.1831 31.6845 15.287 31.6832 15.3742C31.6806 15.5489 31.6719 15.6527 31.6719 15.6527C31.6719 15.6527 31.6023 15.6361 31.4878 15.5928C31.3737 15.5515 31.2146 15.4835 31.0368 15.3836C30.8588 15.2857 30.6611 15.1544 30.4698 14.9885C30.273 14.8226 30.0747 14.6213 29.909 14.3781C29.5652 13.8978 29.3548 13.3368 29.2091 12.8804C29.1755 12.7671 29.1419 12.6606 29.1156 12.5646C29.0886 12.4686 29.069 12.3827 29.0513 12.3107C29.0138 12.1681 28.998 12.0815 28.998 12.0815C28.998 12.0815 29.2819 12.0569 29.675 12.1462C29.8737 12.1908 30.0923 12.266 30.3179 12.392C30.5466 12.5173 30.769 12.6938 30.9738 12.941H30.974Z" fill="#E4E4E4"/>
<path d="M30.6934 17.2084C30.932 17.856 30.8987 18.6401 30.7605 19.2325C30.7442 19.3072 30.7296 19.3797 30.7113 19.447C30.6911 19.5163 30.6717 19.5809 30.6534 19.6416C30.6158 19.7642 30.5785 19.8708 30.547 19.9614C30.5166 20.0507 30.4837 20.1194 30.4627 20.1667C30.4411 20.214 30.4288 20.2394 30.4288 20.2394C30.4288 20.2394 30.3642 20.198 30.2631 20.1127C30.1619 20.0288 30.0272 19.9036 29.8817 19.7363C29.5836 19.3998 29.2653 18.9154 29.087 18.2938C28.9056 17.6715 28.8973 17.0305 28.9023 16.5296C28.9083 16.4056 28.9043 16.2883 28.9116 16.1858C28.9163 16.0818 28.9253 15.9912 28.9313 15.9153C28.9386 15.7634 28.9507 15.6741 28.9507 15.6741C28.9507 15.6741 29.0261 15.6913 29.149 15.7347C29.2718 15.7794 29.4415 15.8493 29.6308 15.9585C29.8232 16.0705 30.0192 16.2177 30.2106 16.423C30.3052 16.5243 30.3973 16.6402 30.4816 16.7715C30.5604 16.9007 30.6326 17.0467 30.6935 17.2086L30.6934 17.2084Z" fill="#E4E4E4"/>
<path d="M29.0619 21.1654C29.0647 21.2573 29.0667 21.354 29.0587 21.4472C29.051 21.5404 29.0397 21.6337 29.0241 21.7284C28.9951 21.9156 28.9528 22.1048 28.8906 22.2813C28.861 22.3719 28.83 22.4606 28.7964 22.5472C28.7788 22.5918 28.7618 22.6351 28.7452 22.6764C28.7255 22.7185 28.7059 22.7603 28.6869 22.801C28.608 22.9642 28.5258 23.1194 28.4437 23.2627C28.2673 23.5392 28.1032 23.7777 27.9678 23.9303C27.8356 24.0868 27.7508 24.1761 27.7508 24.1761C27.7508 24.1761 27.6989 24.1102 27.626 23.9869C27.5518 23.8657 27.4563 23.6878 27.3664 23.4659C27.2756 23.2447 27.194 22.9856 27.1298 22.6877C27.0691 22.3918 27.0402 22.072 27.0496 21.7222C27.0772 21.0313 27.2795 20.3757 27.4509 19.8653C27.4972 19.7401 27.5344 19.6201 27.5754 19.5176C27.6146 19.4123 27.6568 19.3243 27.6838 19.2464C27.7434 19.0939 27.7863 19.0059 27.7863 19.0059C27.7863 19.0059 27.8578 19.0492 27.969 19.1338C28.0802 19.2205 28.2313 19.3504 28.3877 19.5256C28.4659 19.6129 28.5468 19.7142 28.6222 19.8247C28.6964 19.9374 28.7664 20.06 28.8299 20.1966C28.8925 20.3325 28.9477 20.4811 28.9904 20.6443C29.0286 20.8049 29.0529 20.9775 29.0619 21.1654H29.0619Z" fill="#E4E4E4"/>
<path d="M26.2916 24.4029C26.1795 24.7833 25.9815 25.1531 25.7348 25.473C25.6154 25.6409 25.4793 25.7861 25.3424 25.924C25.2742 25.9927 25.2063 26.0619 25.1368 26.1252C25.0659 26.1859 24.9959 26.2437 24.9271 26.2991C24.6548 26.5256 24.3869 26.6808 24.1982 26.7941C24.1047 26.8527 24.0232 26.8861 23.9686 26.9147C23.9146 26.94 23.8841 26.9534 23.8841 26.9534C23.8841 26.9534 23.8584 26.8674 23.8328 26.7175C23.8065 26.5663 23.7809 26.353 23.7755 26.0992C23.7682 25.84 23.7789 25.5422 23.8268 25.229C23.8517 25.0752 23.8821 24.9078 23.924 24.742C23.9649 24.5727 24.0212 24.4122 24.0844 24.2396C24.3486 23.5673 24.7523 22.9843 25.0848 22.5353C25.1063 22.508 25.1281 22.4826 25.148 22.4554C25.1683 22.4287 25.1873 22.4027 25.2069 22.376C25.2452 22.3247 25.2828 22.2761 25.3193 22.2315C25.3916 22.1395 25.4609 22.0656 25.5121 21.9969C25.6199 21.8643 25.6914 21.7917 25.6914 21.7917C25.6914 21.7917 25.7507 21.859 25.8361 21.9816C25.9227 22.1062 26.0352 22.2867 26.139 22.516C26.1908 22.6312 26.2408 22.7591 26.2817 22.8984C26.3224 23.0343 26.3546 23.1828 26.3743 23.3421C26.3939 23.5014 26.4033 23.6726 26.3909 23.8499C26.3776 24.0251 26.3453 24.2103 26.2914 24.4028L26.2916 24.4029Z" fill="#E4E4E4"/>
<path d="M22.645 26.495C22.5179 26.6583 22.3702 26.8148 22.2084 26.9607C22.044 27.0954 21.866 27.2226 21.6819 27.3372C21.4952 27.4425 21.3025 27.5384 21.1121 27.6218C20.9195 27.695 20.728 27.7596 20.5467 27.815C20.1813 27.9056 19.8538 27.9663 19.6185 27.9796C19.384 27.9995 19.2422 28.0022 19.2422 28.0022C19.2422 28.0022 19.2558 27.9069 19.2967 27.7471C19.338 27.5884 19.4075 27.3666 19.5114 27.1147C19.564 26.9874 19.6246 26.8542 19.6948 26.7162C19.7298 26.649 19.7667 26.5797 19.8066 26.5097C19.8463 26.437 19.8882 26.3638 19.9321 26.2912C20.0203 26.1453 20.1181 25.9993 20.2252 25.8595C20.3331 25.7188 20.449 25.5676 20.5771 25.4331C21.0892 24.8821 21.6709 24.4803 22.1355 24.1725C22.1934 24.1345 22.25 24.1005 22.3049 24.0672C22.3581 24.0305 22.4097 23.9972 22.4583 23.9672C22.5561 23.904 22.6457 23.858 22.7185 23.812C22.8636 23.7215 22.9552 23.6768 22.9552 23.6768C22.9552 23.6768 22.9918 23.7648 23.0361 23.92C23.0807 24.0739 23.1332 24.2937 23.1588 24.5622C23.1858 24.8321 23.1805 25.1359 23.1096 25.4704C23.0401 25.8095 22.8953 26.1494 22.645 26.4951V26.495Z" fill="#E4E4E4"/>
<path d="M28.7584 4.22145C28.824 4.77512 29.0246 5.33486 29.2094 5.76253C29.2985 5.9784 29.3894 6.15829 29.4507 6.28886C29.5136 6.41878 29.5559 6.49274 29.5559 6.49274C29.5559 6.49274 29.7469 6.35346 29.9396 6.07163C30.1316 5.78851 30.323 5.36069 30.294 4.77911C30.269 4.19482 30.0034 3.58319 29.7358 3.1281C29.6687 3.01481 29.6018 2.91087 29.5405 2.81892C29.4775 2.72762 29.4171 2.64766 29.3665 2.58306C29.2653 2.4525 29.2008 2.37646 29.2008 2.37646C29.2008 2.37646 29.0504 2.56171 28.9249 2.88552C28.8616 3.04743 28.8064 3.24131 28.7722 3.46718C28.7356 3.69368 28.7296 3.94353 28.7585 4.22137L28.7584 4.22145Z" fill="#E4E4E4"/>
<path d="M31.1018 8.26237C31.0039 8.87201 31.0619 9.52698 31.1314 10.0393C31.1483 10.1679 31.167 10.2865 31.186 10.3917C31.2037 10.4997 31.2196 10.5943 31.2346 10.6709C31.2649 10.8274 31.2885 10.9194 31.2885 10.9194C31.2885 10.9194 31.5324 10.8288 31.8196 10.585C31.9621 10.4617 32.1175 10.2998 32.2539 10.0893C32.386 9.88141 32.5085 9.61956 32.5748 9.30639C32.7155 8.67484 32.615 7.9492 32.4669 7.39153C32.3954 7.11233 32.3072 6.87583 32.2416 6.70857C32.1777 6.54131 32.1291 6.44409 32.1291 6.44409C32.1291 6.44409 32.0745 6.48207 31.9923 6.55603C31.9101 6.63062 31.7986 6.74391 31.6815 6.89646C31.5644 7.04773 31.4428 7.23762 31.3411 7.46548C31.2372 7.69271 31.1484 7.95983 31.1018 8.26237Z" fill="#E4E4E4"/>
<path d="M32.3274 12.7938C32.0478 13.4147 31.9124 14.1236 31.8079 14.682C31.7829 14.8226 31.7666 14.9518 31.7477 15.0691C31.7277 15.1856 31.7127 15.2896 31.7014 15.3756C31.6784 15.5488 31.6719 15.6527 31.6719 15.6527C31.6719 15.6527 31.7431 15.6493 31.8619 15.6281C31.9811 15.6081 32.1477 15.5674 32.3385 15.4888C32.5299 15.4122 32.7455 15.2949 32.9628 15.1177C33.1744 14.9411 33.3784 14.7025 33.5592 14.3821C33.9083 13.7411 34.0224 12.9103 34.0198 12.2594C34.0224 12.0961 34.0135 11.9448 34.0035 11.8089C33.9941 11.6724 33.9838 11.5511 33.9712 11.4525C33.9436 11.2526 33.9207 11.134 33.9207 11.134C33.9207 11.134 33.6511 11.2339 33.3239 11.4945C33.1616 11.6237 32.9775 11.7949 32.8051 12.0102C32.6357 12.2234 32.464 12.484 32.3275 12.7938H32.3274Z" fill="#E4E4E4"/>
<path d="M32.1356 17.5377C31.6267 18.0821 31.2357 18.7603 30.9248 19.2946C30.8885 19.3626 30.853 19.4286 30.819 19.4905C30.7841 19.5525 30.7512 19.6117 30.7202 19.6691C30.6579 19.7823 30.6061 19.8836 30.5651 19.9682C30.4799 20.1381 30.4287 20.2394 30.4287 20.2394C30.4287 20.2394 30.5029 20.2641 30.6337 20.2853C30.7639 20.3074 30.9519 20.3287 31.1772 20.318C31.6194 20.2934 32.2368 20.1535 32.8245 19.6218C33.4113 19.0928 33.8399 18.272 34.0675 17.581C34.1297 17.4098 34.1686 17.2439 34.2093 17.0953C34.2469 16.9467 34.2792 16.8147 34.3008 16.7022C34.3407 16.4783 34.356 16.3438 34.356 16.3438C34.356 16.3438 34.2778 16.3464 34.147 16.3705C34.0163 16.3964 33.8319 16.4418 33.6185 16.5244C33.4089 16.607 33.1563 16.7229 32.9046 16.8888C32.7782 16.9707 32.6507 17.0654 32.5246 17.1733C32.3931 17.2812 32.2624 17.4018 32.1356 17.5378V17.5377Z" fill="#E4E4E4"/>
<path d="M30.4319 21.9883C30.3427 22.0369 30.2592 22.0908 30.1724 22.1435C30.0844 22.1961 29.999 22.2515 29.9161 22.3088C29.7497 22.4234 29.5919 22.5459 29.4329 22.6646C29.3546 22.7252 29.2792 22.7878 29.2056 22.8485C29.1686 22.8805 29.1328 22.9118 29.0971 22.9417C29.0608 22.9723 29.0242 23.0024 28.9879 23.0316C28.8442 23.1503 28.7121 23.2709 28.5903 23.3841C28.3353 23.6013 28.1366 23.8078 27.9836 23.9457C27.8345 24.0869 27.751 24.1762 27.751 24.1762C27.751 24.1762 27.8185 24.2262 27.9431 24.2948C28.0678 24.3621 28.2505 24.4474 28.4852 24.516C28.7185 24.5839 29.0077 24.6366 29.3304 24.6239C29.6553 24.6119 30.03 24.5459 30.4204 24.3694C31.2111 24.0249 31.9333 23.318 32.4002 22.6811C32.5203 22.5231 32.6188 22.3665 32.7097 22.2273C32.7986 22.0868 32.8788 21.9615 32.9358 21.8522C33.0516 21.635 33.1141 21.5011 33.1141 21.5011C33.1141 21.5011 33.0332 21.4785 32.8898 21.4591C32.7467 21.4404 32.5413 21.4272 32.2944 21.4392C32.1706 21.4458 32.0375 21.4604 31.8954 21.4824C31.7507 21.5038 31.5982 21.5351 31.4405 21.5784C31.2827 21.6197 31.119 21.6757 30.9529 21.7443C30.7826 21.8102 30.6072 21.8914 30.4321 21.9881L30.4319 21.9883Z" fill="#E4E4E4"/>
<path d="M27.4064 25.7107C26.9757 25.7873 26.5538 25.9186 26.1484 26.0545C25.9503 26.1277 25.7507 26.1951 25.564 26.2664C25.4712 26.3043 25.3793 26.3397 25.2911 26.3764C25.2006 26.4084 25.1137 26.4423 25.0302 26.4742C24.6998 26.6149 24.4092 26.7241 24.2093 26.816C24.1094 26.8633 24.0259 26.8914 23.9706 26.916C23.9154 26.94 23.8848 26.9533 23.8848 26.9533C23.8848 26.9533 23.9327 27.0306 24.0312 27.1478C24.1304 27.2651 24.2804 27.423 24.4915 27.5823C24.6999 27.7389 24.9681 27.8941 25.3072 28.0073C25.478 28.0659 25.662 28.1059 25.864 28.1306C26.0649 28.1532 26.289 28.1666 26.5232 28.1453C26.7565 28.124 26.9984 28.082 27.2394 28.02C27.4751 27.9534 27.7116 27.8701 27.9442 27.7756C28.1709 27.6756 28.3912 27.5623 28.6016 27.4477C28.8105 27.3292 29.0019 27.1992 29.1826 27.0766C29.2273 27.0453 29.2719 27.0146 29.3148 26.9847C29.3568 26.952 29.397 26.9214 29.437 26.8901C29.5165 26.8268 29.5913 26.7675 29.6619 26.7095C29.803 26.5923 29.9285 26.487 30.0233 26.3911C30.218 26.2045 30.3288 26.0859 30.3288 26.0859C30.3288 26.0859 30.2532 26.0359 30.1115 25.9713C29.97 25.9054 29.7637 25.824 29.5055 25.758C29.3763 25.7254 29.2346 25.6961 29.0801 25.6727C28.9243 25.6488 28.758 25.6295 28.5812 25.6228C28.4041 25.6148 28.2194 25.6188 28.0231 25.6321C27.8251 25.6435 27.6195 25.6687 27.4065 25.7107H27.4064Z" fill="#E4E4E4"/>
<path d="M26.0072 3.14077C26.5093 3.56324 27.0542 3.8717 27.4889 4.09229C27.596 4.14753 27.6991 4.19351 27.7893 4.23484C27.8792 4.2781 27.9594 4.31344 28.0259 4.34142C28.1594 4.39803 28.2406 4.42537 28.2406 4.42537C28.2406 4.42537 28.2302 4.34142 28.1993 4.19615C28.1844 4.12291 28.1644 4.0356 28.1374 3.93566C28.1075 3.83572 28.0712 3.72642 28.0266 3.6045C27.8476 3.12814 27.5059 2.50515 26.9255 2.0188C26.8539 1.95948 26.7803 1.90151 26.7068 1.84754C26.6315 1.79493 26.5547 1.74632 26.4779 1.70035C26.4016 1.65574 26.3261 1.61168 26.2492 1.57243C26.171 1.53581 26.0934 1.50111 26.0172 1.46985C25.941 1.43723 25.8672 1.40652 25.793 1.3819C25.7174 1.35799 25.6438 1.33593 25.5716 1.3173C25.5004 1.29731 25.4315 1.27932 25.364 1.26461C25.2974 1.24998 25.2291 1.24062 25.1666 1.23063C25.0405 1.21328 24.926 1.20001 24.8242 1.19465C24.721 1.19201 24.6321 1.19329 24.5586 1.19465C24.4129 1.20001 24.332 1.21064 24.332 1.21064C24.332 1.21064 24.378 1.28332 24.4629 1.40117C24.5054 1.45913 24.5581 1.52781 24.6186 1.60513C24.6772 1.68572 24.7441 1.77503 24.8183 1.86633C25.1175 2.24475 25.5058 2.71711 26.0073 3.14085L26.0072 3.14077Z" fill="#E4E4E4"/>
<path d="M23.256 28.2265C23.022 28.1805 22.7867 28.1505 22.5535 28.1318C22.3176 28.1032 22.0835 28.0872 21.8556 28.0792C21.626 28.0599 21.4013 28.0532 21.1871 28.0506C20.9708 28.0373 20.7645 28.0306 20.5724 28.0306C20.1867 28.0119 19.8565 28.0173 19.6199 28.0033C19.3832 27.9979 19.2422 28.002 19.2422 28.002C19.2422 28.002 19.2545 28.0979 19.2997 28.2545C19.3446 28.411 19.4215 28.6282 19.5583 28.8741C19.6265 28.9967 19.7101 29.1266 19.8126 29.2586C19.8639 29.3245 19.9205 29.3911 19.981 29.4571C20.0426 29.5204 20.1086 29.585 20.1807 29.647C20.3248 29.7729 20.4915 29.8942 20.6849 30.0088C20.8782 30.1221 21.0962 30.2114 21.3448 30.294C21.5938 30.3798 21.8557 30.4259 22.1282 30.4612C22.4017 30.5006 22.6783 30.5032 22.9559 30.4952C23.2351 30.4932 23.5067 30.4586 23.7709 30.4179C24.0378 30.3826 24.2888 30.3206 24.5246 30.2586C24.6418 30.2293 24.7556 30.1979 24.8645 30.1653C24.971 30.1293 25.0725 30.094 25.1683 30.0587C25.3603 29.9887 25.5325 29.9267 25.6691 29.8649C25.9427 29.7389 26.1031 29.6556 26.1031 29.6556C26.1031 29.6556 26.044 29.5783 25.9227 29.4637C25.802 29.3477 25.6192 29.1939 25.3793 29.0374C25.1406 28.8834 24.8365 28.7135 24.4826 28.5716C24.1309 28.4356 23.7169 28.3017 23.256 28.2265Z" fill="#E4E4E4"/>
</g>
<defs>
<clipPath id="clip0_592_493">
<rect width="34" height="32" fill="white" transform="translate(0.356445 0.885254)"/>
</clipPath>
</defs>
</svg>
