<svg width="1388" height="693" viewBox="0 0 1388 693" fill="none" xmlns="http://www.w3.org/2000/svg">
<path d="M384.533 22.9484H366.874L369.523 25.6041H388.654L391.891 28.2597L419.852 15.2766L442.22 10.5555L459.29 1.11328L391.597 6.12946V9.6703L414.554 9.37523L411.316 13.5062L387.476 14.0963L390.714 19.4076L380.413 17.9322L384.533 22.9484Z" stroke="#BCBEC0" stroke-miterlimit="10"/>
<path d="M412.788 159.271L406.901 150.123H406.607L401.604 148.648V142.157V142.452V142.157L384.533 159.271H384.827H412.788Z" stroke="#BCBEC0" stroke-miterlimit="10"/>
<path d="M1088.55 326.87L1092.37 341.329L1091.49 356.082L1091.2 361.983L1101.5 370.836L1102.38 374.081L1106.5 387.359L1123.28 401.523L1124.45 396.507L1108.56 373.196L1098.55 358.148L1100.91 335.132L1112.39 346.345L1117.98 351.951L1124.45 351.066L1124.75 361.393L1143 349.295L1142.41 331.296L1123.28 311.231L1124.16 300.314L1130.93 296.478L1137.11 292.937L1137.4 298.839L1174.19 285.56L1186.26 258.709L1164.78 223.301L1175.67 211.203H1163.01L1158.89 213.858L1150.94 200.875L1160.95 192.023L1168.01 205.301L1177.73 198.515L1183.32 208.842L1190.38 210.908L1198.03 227.432L1207.16 226.842L1208.63 216.219L1195.97 205.892L1190.38 201.17L1197.74 200.285L1196.56 185.827L1210.1 183.466L1217.46 172.549V152.189L1196.56 128.583L1176.25 128.288L1179.79 103.207L1221.58 103.502L1225.99 89.3391L1243.65 96.1257V89.6342L1248.07 89.9292L1255.72 97.306L1248.36 102.322L1247.48 117.371L1277.21 145.697V118.551L1260.43 102.322L1300.16 89.6342L1300.75 85.5032L1280.74 80.1919L1288.39 73.9955L1306.34 77.5363L1318.41 77.8314L1308.7 67.504L1246.3 55.111L1149.76 52.4554L1144.47 45.0787L1110.91 39.4723L1101.5 48.0293H1074.12L1062.65 39.4723H1001.13L997.307 25.8991H940.504L890.469 48.3244L901.359 61.8976L891.941 71.6349L883.406 43.6033L868.395 42.423L875.753 58.9469L816.889 60.4223L762.146 82.8476L754.788 68.9793L775.685 69.8645L785.691 64.8483L745.958 52.1603L737.423 52.4554L728.888 52.7505L712.111 53.6357L654.425 93.7651L660.311 107.338L677.676 104.388L678.853 105.863L690.037 118.846L708.285 102.617L699.75 91.9947L718.881 71.0448H725.65L716.526 91.9947L727.416 97.601H743.898L741.838 99.6665L739.189 102.027L725.65 102.322L724.473 105.273L728.593 108.224L729.476 108.814L728.593 113.24L719.175 108.814V114.42V120.616V120.912V125.633L709.757 125.928L707.697 123.862L694.158 127.108L675.321 126.813L674.439 123.567L674.144 122.387L676.204 111.174H670.612L666.786 120.026L668.258 123.862L669.435 126.813L660.311 132.419L651.187 138.026L645.89 141.271L623.227 154.845H614.986V158.385L624.698 163.697L625.876 181.106L592.323 181.401L591.735 206.777L596.444 215.039L599.093 215.334L619.695 216.809L640.297 190.548L644.712 184.942H665.903L666.493 176.612L673.694 176.913L698.278 199.695L699.456 209.728L703.87 207.367L705.342 199.99L710.64 198.81L681.797 174.024L690.037 173.434H691.215L693.275 173.139L703.282 184.647L705.342 185.237L708.58 186.122L715.055 198.515L715.643 199.4L719.764 204.121L727.71 206.482L722.707 208.547L729.182 216.809L733.302 210.318L728.888 200.285L738.012 195.859H754.493L750.962 187.892L753.905 179.04L757.437 168.123H774.507L770.681 171.959L775.979 174.909L783.043 174.319L776.273 165.762L793.932 161.926L795.993 166.942L790.695 168.418L791.578 176.68L810.414 183.171V192.023H810.12L759.497 193.794L755.082 199.105H745.37L753.316 215.334L790.401 217.399L788.635 225.661L786.869 233.628L783.631 245.726L742.426 240.12L725.062 237.759L717.998 248.677L702.105 245.431L695.924 237.759L682.385 234.513L677.382 233.333L677.97 216.219L662.96 215.924L645.595 215.334L622.344 224.186L595.855 226.842L570.249 260.184L548.764 288.511L548.47 295.298L547.881 314.182L547.292 332.476V336.607L546.998 343.689V343.984L553.767 351.066L562.303 360.213L570.544 369.065L587.614 387.655L612.631 380.278L629.702 375.262L635.883 373.491L638.532 372.901L652.365 374.967L654.13 383.524H672.084L671.79 394.146L671.495 402.113L671.201 414.801L681.797 428.964L687.094 436.046L690.037 439.882V474.405L681.208 488.863L682.091 498.306L712.994 584.466H750.373L779.216 551.123L780.982 539.32L792.166 531.353L791.283 507.748L817.478 486.208L814.829 461.422L811.592 425.718L820.127 415.686L871.044 356.082L869.278 346.64L833.665 351.951L831.9 348.705L827.779 341.329L807.177 305.92L776.273 252.513L786.574 260.775L789.223 254.283V253.988V253.693L826.013 317.723L826.602 320.084L833.077 341.329L881.051 319.789L905.185 289.691L891.941 277.889L886.937 273.463L878.991 282.315L868.984 280.249L866.041 278.184L868.69 275.528L863.98 269.036L861.92 275.528L860.743 274.643L850.442 257.529L844.85 248.382H850.147L850.442 248.972L857.505 249.562L873.693 266.381L903.419 275.233H937.56L944.33 282.905L945.213 284.085L954.631 287.036L950.216 291.462L954.337 296.773L961.695 297.658L963.166 291.462H966.109L989.949 360.508L1005.25 351.066L1007.61 323.329L1042.34 289.691L1045.87 286.151L1062.35 300.019L1069.71 306.215L1072.65 320.969L1077.95 322.444L1081.78 317.723L1088.55 326.87Z" stroke="#BCBEC0" stroke-miterlimit="10"/>
<path d="M620.872 129.469L615.869 132.124L620.284 138.616L611.454 146.878L623.227 144.812L635 143.042L635.883 138.616H638.237L638.826 133.6L631.174 131.829L621.461 109.699L614.103 109.404V121.502L620.872 122.092V129.469Z" stroke="#BCBEC0" stroke-miterlimit="10"/>
<path d="M594.089 128.583V141.566L599.092 141.271V136.845L608.511 138.321L607.628 128.583L611.454 127.403V122.682L602.918 122.092L594.089 128.583Z" stroke="#BCBEC0" stroke-miterlimit="10"/>
<path d="M396.895 84.618V70.7497L407.49 74.5856L413.671 70.4546L410.139 63.9631L403.959 61.8976L403.664 52.1603L369.818 38.292L364.52 37.997L352.747 47.7343L356.867 37.997H350.981L337.442 52.7505L370.701 50.98L391.009 69.2744L377.47 68.9793L370.406 74.5856H354.807V79.0117H370.701L384.239 90.2243L387.771 88.4539L384.534 81.3722L393.952 85.7983L396.895 84.618Z" stroke="#BCBEC0" stroke-miterlimit="10"/>
<path d="M255.621 37.7019L248.852 34.4561L220.892 41.8329L226.189 47.7343L255.621 37.7019Z" stroke="#BCBEC0" stroke-miterlimit="10"/>
<path d="M387.476 29.1449H362.753L354.512 25.6041L346.271 32.6857L378.941 35.0463L387.476 29.1449Z" stroke="#BCBEC0" stroke-miterlimit="10"/>
<path d="M319.195 44.1934L322.138 36.2266L302.713 42.7181L308.011 47.7343L319.195 44.1934Z" stroke="#BCBEC0" stroke-miterlimit="10"/>
<path d="M340.68 40.3575L337.737 36.2266L324.198 39.4723L325.376 44.4885L340.68 40.3575Z" stroke="#BCBEC0" stroke-miterlimit="10"/>
<path d="M379.236 12.3259L373.938 8.49002L359.517 14.6865L371.878 17.047L379.236 12.3259Z" stroke="#BCBEC0" stroke-miterlimit="10"/>
<path d="M252.973 48.9146L238.257 52.7505L256.505 59.8321L269.16 54.5209L282.993 57.7666L293.589 55.4061L283.288 50.685L291.234 40.3575H283.288L278.579 46.554L276.813 40.3575L268.277 43.6033L259.448 39.4723L243.555 45.0786L252.973 48.9146Z" stroke="#BCBEC0" stroke-miterlimit="10"/>
<path d="M308.01 56.5864L305.656 52.7505L296.826 56.5864L299.769 60.7173L308.01 56.5864Z" stroke="#BCBEC0" stroke-miterlimit="10"/>
<path d="M1264.55 410.375L1251.01 412.145L1266.02 418.932L1264.55 410.375Z" stroke="#BCBEC0" stroke-miterlimit="10"/>
<path d="M638.237 203.826H644.712V198.22L638.237 203.826Z" stroke="#BCBEC0" stroke-miterlimit="10"/>
<path d="M1137.11 309.756L1140.35 313.592L1144.76 307.691V303.56L1137.11 305.33V309.756Z" stroke="#BCBEC0" stroke-miterlimit="10"/>
<path d="M1194.21 349L1181.55 360.508L1186.26 361.393L1194.5 354.607L1194.21 349Z" stroke="#BCBEC0" stroke-miterlimit="10"/>
<path d="M1188.62 409.49V382.933V373.196L1180.08 374.081L1170.07 387.654L1146.53 398.572L1146.82 411.26L1154.18 423.948H1177.14L1188.62 409.49Z" stroke="#BCBEC0" stroke-miterlimit="10"/>
<path d="M1200.39 311.527L1193.32 311.231L1191.56 325.985L1201.57 337.788L1212.75 339.263L1214.52 334.247L1203.92 333.362L1200.09 328.641L1203.92 319.788L1200.39 311.527Z" stroke="#BCBEC0" stroke-miterlimit="10"/>
<path d="M1127.69 444.603L1175.08 452.57L1174.49 449.324L1157.42 440.767L1146.53 443.128L1134.75 438.702L1127.69 444.603Z" stroke="#BCBEC0" stroke-miterlimit="10"/>
<path d="M1202.74 412.145L1200.68 408.899L1205.1 403.883L1213.04 406.834L1217.16 406.539L1223.05 399.162H1218.05L1214.52 401.523L1203.04 398.572L1195.68 405.359L1195.97 416.276L1191.56 422.178L1194.5 436.046L1199.8 434.571L1198.33 424.833L1201.57 421.292L1204.21 428.374L1210.69 430.735V425.423L1206.86 417.456L1213.93 411.555L1202.74 412.145Z" stroke="#BCBEC0" stroke-miterlimit="10"/>
<path d="M1349.9 430.145L1334.01 438.406L1339.9 441.947L1349.9 436.046V430.145Z" stroke="#BCBEC0" stroke-miterlimit="10"/>
<path d="M1297.22 421.587L1284.27 414.801L1271.91 424.538L1258.96 419.522L1257.49 426.604L1265.14 426.309L1283.97 434.275L1287.51 444.013L1281.03 447.849L1297.22 453.455L1303.1 455.52L1314.29 445.193L1329.01 459.356L1342.25 462.012L1325.77 445.488L1326.65 436.931L1297.22 421.587Z" stroke="#BCBEC0" stroke-miterlimit="10"/>
<path d="M1217.75 371.131V377.622L1224.52 375.557L1222.17 371.426L1227.76 369.95L1223.05 355.197L1219.52 364.344H1208.04L1217.75 371.131Z" stroke="#BCBEC0" stroke-miterlimit="10"/>
<path d="M1198.92 454.045H1205.69L1208.63 451.685L1204.8 449.324H1197.44L1198.92 454.045Z" stroke="#BCBEC0" stroke-miterlimit="10"/>
<path d="M1222.17 454.93L1231 454.045V450.504H1218.93L1211.57 458.766L1217.16 459.651L1222.17 454.93Z" stroke="#BCBEC0" stroke-miterlimit="10"/>
<path d="M1223.93 233.333L1216.87 234.218L1223.64 244.546L1225.99 236.579L1225.7 235.989L1235.41 230.973L1223.93 233.333Z" stroke="#BCBEC0" stroke-miterlimit="10"/>
<path d="M1241.59 191.728L1244.24 187.892H1252.78L1256.6 181.401L1237.18 173.434L1237.77 189.368L1241.59 191.728Z" stroke="#BCBEC0" stroke-miterlimit="10"/>
<path d="M1238.06 392.08L1233.94 396.211L1232.47 406.244L1238.06 407.719L1236.88 398.572L1240.12 394.441L1238.06 392.08Z" stroke="#BCBEC0" stroke-miterlimit="10"/>
<path d="M1213.34 133.304H1207.45L1223.64 153.074L1231.59 167.828H1237.47L1227.76 153.959H1233.35L1213.34 133.304Z" stroke="#BCBEC0" stroke-miterlimit="10"/>
<path d="M1244.24 226.546L1256.9 223.301L1256.31 206.482L1250.42 196.449L1244.83 194.679L1248.07 210.023L1236.29 220.645L1220.4 224.776L1218.93 229.497L1237.77 226.842L1239.53 234.218L1243.65 232.448L1244.24 226.546Z" stroke="#BCBEC0" stroke-miterlimit="10"/>
<path d="M1209.51 354.016L1206.86 357.262L1209.51 360.508L1211.87 357.557L1209.51 354.016Z" stroke="#BCBEC0" stroke-miterlimit="10"/>
<path d="M1184.2 284.675L1190.38 290.577L1194.21 279.659L1190.38 275.823L1184.2 284.675Z" stroke="#BCBEC0" stroke-miterlimit="10"/>
<path d="M1225.11 350.181L1220.11 342.214L1215.1 343.984L1220.11 350.181H1225.11Z" stroke="#BCBEC0" stroke-miterlimit="10"/>
<path d="M573.781 71.6349H562.891L560.537 74.8807L554.062 74.5856V80.487L576.43 83.7328L589.674 77.2412V75.4708L583.199 68.6842L573.781 71.6349Z" stroke="#BCBEC0" stroke-miterlimit="10"/>
<path d="M583.788 15.5717L599.681 12.3259L604.979 6.7196L559.948 2.29356L520.804 6.7196H473.418L446.046 16.1618L424.267 22.9484V29.735L457.525 30.0301L466.06 44.7836V58.0617L450.167 67.2089L450.755 85.2081L460.468 95.2405H472.535L490.489 76.356L516.094 68.6842L525.513 61.3075L544.938 60.1272L558.476 56.2913L583.788 15.5717Z" stroke="#BCBEC0" stroke-miterlimit="10"/>
<path d="M835.137 497.715L832.783 514.83L828.662 526.337L833.665 538.14L845.733 538.73L866.041 472.93H858.683L835.137 497.715Z" stroke="#BCBEC0" stroke-miterlimit="10"/>
<path d="M255.621 369.655L253.561 362.574L246.203 361.983L243.26 366.705L230.604 362.278L227.661 361.098L219.126 349.59L211.768 339.558L209.707 338.673L201.466 334.837L189.988 328.936L182.336 320.969L173.212 323.329L137.305 308.281L115.231 256.348L114.936 243.365H108.167V257.824L119.94 282.61L113.759 287.331L99.0431 259.299L96.9829 237.464L83.1499 223.596V192.909L121.117 152.484V147.468L110.816 138.321L116.408 112.059L101.692 97.306L52.8349 99.0764L10.4529 119.436L2.21191 118.846L24.2859 104.388L12.8074 104.683L25.7575 86.0933L53.7179 75.7659L32.2325 76.6511L37.236 69.8645L62.8418 70.1596V60.1272L86.3874 51.2751L142.602 50.98L153.492 55.4061L221.48 53.9307L257.093 68.0941L271.809 61.3075L299.475 66.6187L315.368 58.9469L312.131 52.4554L323.903 47.1441L325.375 57.1765L332.144 57.7666L330.378 66.0286L345.094 56.2913L355.69 57.4716L344.212 69.2744L316.251 72.2251L320.077 77.8314L301.829 81.0771L269.749 104.978L301.829 122.387L301.535 140.386H310.659L347.743 86.0933H361.576L371.583 94.6503V107.043L392.48 98.7813L394.54 125.043L410.728 127.698V133.009L388.654 144.812L359.222 145.992L340.974 154.845V159.861L360.105 151.009L363.048 153.959L356.867 163.402L363.048 169.008L376.292 169.598L349.215 179.04L348.332 174.909L358.339 170.188L343.329 172.844V173.139L338.031 174.024L257.976 242.48L257.681 273.167L249.735 272.872L246.497 248.087L197.052 247.791L176.155 274.053L167.325 285.265L178.215 308.576H200.289L208.236 295.298L218.243 295.593L217.948 305.625L217.654 305.92L210.296 320.084L208.824 323.034L232.37 322.739L232.959 350.771V351.656V354.902L235.902 356.672L241.2 359.623L245.32 356.377L256.799 355.492L258.27 360.803L263.568 360.508L274.163 346.345H279.167L304.184 346.64L314.78 354.312L334.205 356.082L338.914 360.803L353.924 375.262L368.051 376.442L375.998 377.032L379.824 385.294L386.299 399.752L378.647 410.965L388.948 402.998L396.306 406.244L392.774 415.981L403.664 409.49L414.554 414.211L413.965 420.702L436.922 421.292L461.057 437.226V449.029L446.341 468.504L439.865 516.01L405.43 531.353L402.193 552.598L388.065 577.384L381.002 589.482L363.637 582.991L378.058 603.35L345.977 617.219L348.921 676.528L336.559 675.347L315.368 647.906L314.78 627.546L302.712 617.809L298.003 505.092L270.632 486.798L238.845 432.505L240.317 409.785L249.441 398.277L255.621 390.605L257.681 377.032L255.621 369.655ZM255.621 369.655L258.564 365.524L258.27 364.639M248.558 159.271L271.22 154.549L274.163 164.582L278.873 168.123L286.525 167.533L289.468 176.68H285.053L278.873 181.401L272.692 181.991L273.869 171.073H268.866L263.274 174.909L252.678 190.548H246.497L258.564 171.073L272.692 168.123L271.809 165.467L262.391 165.172L257.976 162.516L252.384 165.172H245.909L248.558 159.271Z" stroke="#BCBEC0" stroke-miterlimit="10"/>
<path d="M338.914 83.4377L340.68 79.0117L330.378 74.5856L321.549 81.6673L338.914 83.4377Z" stroke="#BCBEC0" stroke-miterlimit="10"/>
<path d="M313.897 312.412L315.663 309.461H310.659L308.894 312.412H313.897Z" stroke="#BCBEC0" stroke-miterlimit="10"/>
<path d="M115.82 149.533L108.167 143.042L104.93 145.992L110.227 153.074H115.82V149.533Z" stroke="#BCBEC0" stroke-miterlimit="10"/>
<path d="M254.149 285.265H241.494L236.49 289.986H250.912L262.685 297.658L258.27 302.674H278.578L254.149 285.265Z" stroke="#BCBEC0" stroke-miterlimit="10"/>
<path d="M256.799 311.822L259.742 314.477H268.572V311.231L265.628 308.281H256.799V311.822Z" stroke="#BCBEC0" stroke-miterlimit="10"/>
<path d="M294.471 307.986H302.124L304.184 305.33L289.762 303.56H280.933L283.876 307.691H278.578V309.756H289.762V311.527L294.471 307.986Z" stroke="#BCBEC0" stroke-miterlimit="10"/>
<path d="M348.038 685.085L354.513 690.986L374.233 691.871L352.747 680.364L348.038 685.085Z" stroke="#BCBEC0" stroke-miterlimit="10"/>
<path d="M680.619 116.486L677.676 117.961L676.793 122.682H682.385L684.151 120.026L680.619 116.486Z" stroke="#BCBEC0" stroke-miterlimit="10"/>
<path d="M1130.05 431.915V422.178L1092.08 382.638L1079.13 377.622L1122.98 437.816L1130.05 431.915Z" stroke="#BCBEC0" stroke-miterlimit="10"/>
<path d="M1342.25 421.587L1354.02 430.145L1358.73 428.669L1346.66 421.292L1342.25 421.587Z" stroke="#BCBEC0" stroke-miterlimit="10"/>
<path d="M672.672 184.352H668.846V189.073L671.495 190.253L672.672 184.352Z" stroke="#BCBEC0" stroke-miterlimit="10"/>
<path d="M666.197 204.121H671.495V194.089L666.197 192.318V204.121Z" stroke="#BCBEC0" stroke-miterlimit="10"/>
<path d="M695.924 208.547H684.445V211.203L688.86 214.154L695.924 215.334V208.547Z" stroke="#BCBEC0" stroke-miterlimit="10"/>
<path d="M688.271 223.301L695.335 225.366V218.875H688.271V223.301Z" stroke="#BCBEC0" stroke-miterlimit="10"/>
<path d="M772.152 225.366L779.51 227.432L782.454 221.53L772.152 225.366Z" stroke="#BCBEC0" stroke-miterlimit="10"/>
<path d="M1380.22 600.99V591.548L1376.68 593.023V606.301L1367.86 615.153L1364.91 624.595L1386.4 609.252L1380.22 600.99Z" stroke="#BCBEC0" stroke-miterlimit="10"/>
<path d="M1276.62 471.159L1270.14 469.094V488.863L1256.01 503.027L1234.82 484.732L1241.3 472.93L1215.69 473.52L1208.92 487.683L1193.62 480.896L1165.66 511.879L1127.99 529.583V571.483L1122.1 585.646L1126.51 590.957L1198.03 575.319L1209.81 585.646L1222.17 580.335L1226.58 604.826L1262.78 606.891L1304.58 563.516L1306.93 539.025L1283.97 506.568L1276.62 471.159Z" stroke="#BCBEC0" stroke-miterlimit="10"/>
<path d="M1321.65 652.037L1356.08 629.316V623.415L1311.35 646.135L1321.65 652.037Z" stroke="#BCBEC0" stroke-miterlimit="10"/>
</svg>
